<svg width="342" height="330" viewBox="0 0 342 330" fill="none" xmlns="http://www.w3.org/2000/svg">
<rect x="0.5" y="0.5" width="99" height="35" rx="7.5" fill="white"/>
<path d="M17.936 20.326L13.4 13.648L13.988 13.396L14.702 13.2L18.622 19.01L17.936 20.326ZM13.246 23V13.2H14.618V23H13.246ZM17.936 20.326L17.264 19.01L21.184 13.2L21.898 13.396L22.472 13.634L17.936 20.326ZM21.268 23V13.2H22.64V23H21.268ZM29.0889 23L29.0189 21.782V19.346C29.0189 18.8327 28.9582 18.408 28.8369 18.072C28.7249 17.7267 28.5475 17.4653 28.3049 17.288C28.0715 17.1107 27.7589 17.022 27.3669 17.022C27.0029 17.022 26.6809 17.0967 26.4009 17.246C26.1302 17.3953 25.9062 17.6287 25.7289 17.946L24.5249 17.498C24.6929 17.1807 24.9075 16.896 25.1689 16.644C25.4302 16.392 25.7429 16.196 26.1069 16.056C26.4802 15.9067 26.9095 15.832 27.3949 15.832C28.0482 15.832 28.5942 15.958 29.0329 16.21C29.4809 16.462 29.8122 16.84 30.0269 17.344C30.2509 17.8387 30.3582 18.4547 30.3489 19.192L30.3349 23H29.0889ZM27.0449 23.168C26.2142 23.168 25.5655 22.9813 25.0989 22.608C24.6415 22.2253 24.4129 21.698 24.4129 21.026C24.4129 20.3073 24.6509 19.7613 25.1269 19.388C25.6122 19.0053 26.2842 18.814 27.1429 18.814H29.0889V19.864H27.5069C26.8629 19.864 26.4102 19.9667 26.1489 20.172C25.8875 20.368 25.7569 20.6433 25.7569 20.998C25.7569 21.3247 25.8782 21.5813 26.1209 21.768C26.3729 21.9453 26.7182 22.034 27.1569 22.034C27.5395 22.034 27.8662 21.9453 28.1369 21.768C28.4169 21.5907 28.6315 21.3573 28.7809 21.068C28.9395 20.7693 29.0189 20.438 29.0189 20.074H29.6489C29.6489 21.026 29.4295 21.782 28.9909 22.342C28.5522 22.8927 27.9035 23.168 27.0449 23.168ZM32.8356 19.234C32.8356 18.478 32.9803 17.862 33.2696 17.386C33.5589 16.91 33.9323 16.5553 34.3896 16.322C34.8469 16.0887 35.3276 15.972 35.8316 15.972V17.232C35.4116 17.232 35.0103 17.2973 34.6276 17.428C34.2543 17.5493 33.9463 17.7547 33.7036 18.044C33.4703 18.324 33.3536 18.7067 33.3536 19.192L32.8356 19.234ZM32.0236 23V16H33.3536V23H32.0236ZM40.0965 23.168C39.3965 23.168 38.7758 23.014 38.2345 22.706C37.6931 22.3887 37.2685 21.9547 36.9605 21.404C36.6618 20.8533 36.5125 20.2187 36.5125 19.5C36.5125 18.7813 36.6618 18.1467 36.9605 17.596C37.2685 17.0453 37.6885 16.616 38.2205 16.308C38.7618 15.9907 39.3778 15.832 40.0685 15.832C40.7498 15.832 41.3611 15.9907 41.9025 16.308C42.4531 16.6253 42.8638 17.078 43.1345 17.666L41.9305 18.17C41.7531 17.8247 41.4965 17.554 41.1605 17.358C40.8338 17.162 40.4558 17.064 40.0265 17.064C39.6065 17.064 39.2331 17.1667 38.9065 17.372C38.5798 17.5773 38.3231 17.8667 38.1365 18.24C37.9498 18.604 37.8565 19.024 37.8565 19.5C37.8565 19.976 37.9498 20.396 38.1365 20.76C38.3231 21.124 38.5845 21.4133 38.9205 21.628C39.2565 21.8333 39.6345 21.936 40.0545 21.936C40.4838 21.936 40.8665 21.8287 41.2025 21.614C41.5385 21.39 41.7905 21.0913 41.9585 20.718L43.1765 21.208C42.9058 21.824 42.4951 22.3047 41.9445 22.65C41.4031 22.9953 40.7871 23.168 40.0965 23.168ZM44.5064 23L44.4924 13.046H45.8224V23H44.5064ZM49.3504 23V19.416L50.6664 18.996V23H49.3504ZM49.3504 19.416C49.3504 18.7813 49.2757 18.3007 49.1264 17.974C48.977 17.638 48.7717 17.4047 48.5104 17.274C48.2584 17.1433 47.969 17.0733 47.6424 17.064C47.0637 17.064 46.6157 17.2647 46.2984 17.666C45.981 18.0673 45.8224 18.632 45.8224 19.36H45.2624C45.2624 18.6227 45.3697 17.9927 45.5844 17.47C45.799 16.938 46.107 16.532 46.5084 16.252C46.919 15.972 47.4044 15.832 47.9644 15.832C48.8137 15.832 49.4764 16.0933 49.9524 16.616C50.4377 17.1293 50.6757 17.9227 50.6664 18.996L49.3504 19.416ZM56.976 22.384L55.618 21.894C55.618 21.6047 55.6833 21.306 55.814 20.998C55.954 20.6807 56.15 20.368 56.402 20.06C56.6633 19.752 56.9713 19.4673 57.326 19.206L59.216 17.806C59.44 17.6473 59.6407 17.4653 59.818 17.26C60.0047 17.0453 60.1493 16.826 60.252 16.602C60.364 16.3687 60.42 16.14 60.42 15.916C60.42 15.6173 60.3453 15.3467 60.196 15.104C60.0467 14.852 59.8367 14.656 59.566 14.516C59.2953 14.3667 58.9733 14.292 58.6 14.292C58.2453 14.292 57.9327 14.362 57.662 14.502C57.4007 14.6327 57.1813 14.81 57.004 15.034C56.8267 15.258 56.7007 15.496 56.626 15.748L55.212 15.482C55.3147 15.0527 55.5153 14.6513 55.814 14.278C56.1127 13.9047 56.4953 13.606 56.962 13.382C57.4287 13.1487 57.956 13.032 58.544 13.032C59.216 13.032 59.7947 13.158 60.28 13.41C60.7747 13.6527 61.1573 13.9933 61.428 14.432C61.6987 14.8613 61.834 15.356 61.834 15.916C61.834 16.4573 61.6847 16.9567 61.386 17.414C61.0967 17.8713 60.6767 18.3147 60.126 18.744L58.376 20.06C58.1053 20.256 57.8627 20.4707 57.648 20.704C57.4333 20.9373 57.2653 21.194 57.144 21.474C57.032 21.7447 56.976 22.048 56.976 22.384ZM55.618 23V21.894L56.654 21.768H61.96V23H55.618ZM67.2303 23.168C66.4743 23.168 65.8023 22.9533 65.2143 22.524C64.6263 22.0853 64.1643 21.488 63.8283 20.732C63.5017 19.9667 63.3383 19.0893 63.3383 18.1C63.3383 17.1107 63.5017 16.238 63.8283 15.482C64.1643 14.7167 64.6217 14.1193 65.2003 13.69C65.7883 13.2513 66.465 13.032 67.2303 13.032C67.9957 13.032 68.6677 13.2513 69.2463 13.69C69.8343 14.1193 70.2963 14.7167 70.6323 15.482C70.9683 16.238 71.1363 17.1107 71.1363 18.1C71.1363 19.0893 70.9683 19.9667 70.6323 20.732C70.3057 21.488 69.8483 22.0853 69.2603 22.524C68.6723 22.9533 67.9957 23.168 67.2303 23.168ZM67.2303 21.908C67.725 21.908 68.1637 21.7447 68.5463 21.418C68.9383 21.0913 69.2417 20.6433 69.4563 20.074C69.671 19.5047 69.7783 18.8467 69.7783 18.1C69.7783 17.3533 69.671 16.6953 69.4563 16.126C69.2417 15.5473 68.9383 15.0947 68.5463 14.768C68.1637 14.4413 67.725 14.278 67.2303 14.278C66.7357 14.278 66.297 14.4413 65.9143 14.768C65.5317 15.0947 65.233 15.5473 65.0183 16.126C64.8037 16.6953 64.6963 17.3533 64.6963 18.1C64.6963 18.8467 64.8037 19.5093 65.0183 20.088C65.233 20.6573 65.5317 21.1053 65.9143 21.432C66.297 21.7493 66.7357 21.908 67.2303 21.908ZM73.8744 22.384L72.5164 21.894C72.5164 21.6047 72.5818 21.306 72.7124 20.998C72.8524 20.6807 73.0484 20.368 73.3004 20.06C73.5618 19.752 73.8698 19.4673 74.2244 19.206L76.1144 17.806C76.3384 17.6473 76.5391 17.4653 76.7164 17.26C76.9031 17.0453 77.0478 16.826 77.1504 16.602C77.2624 16.3687 77.3184 16.14 77.3184 15.916C77.3184 15.6173 77.2438 15.3467 77.0944 15.104C76.9451 14.852 76.7351 14.656 76.4644 14.516C76.1938 14.3667 75.8718 14.292 75.4984 14.292C75.1438 14.292 74.8311 14.362 74.5604 14.502C74.2991 14.6327 74.0798 14.81 73.9024 15.034C73.7251 15.258 73.5991 15.496 73.5244 15.748L72.1104 15.482C72.2131 15.0527 72.4138 14.6513 72.7124 14.278C73.0111 13.9047 73.3938 13.606 73.8604 13.382C74.3271 13.1487 74.8544 13.032 75.4424 13.032C76.1144 13.032 76.6931 13.158 77.1784 13.41C77.6731 13.6527 78.0558 13.9933 78.3264 14.432C78.5971 14.8613 78.7324 15.356 78.7324 15.916C78.7324 16.4573 78.5831 16.9567 78.2844 17.414C77.9951 17.8713 77.5751 18.3147 77.0244 18.744L75.2744 20.06C75.0038 20.256 74.7611 20.4707 74.5464 20.704C74.3318 20.9373 74.1638 21.194 74.0424 21.474C73.9304 21.7447 73.8744 22.048 73.8744 22.384ZM72.5164 23V21.894L73.5524 21.768H78.8584V23H72.5164ZM83.4428 23.168C82.9388 23.168 82.4814 23.0933 82.0708 22.944C81.6601 22.7947 81.3148 22.5893 81.0348 22.328C80.7548 22.0667 80.5401 21.782 80.3908 21.474L81.5808 20.928C81.6741 21.0587 81.7908 21.208 81.9308 21.376C82.0708 21.5347 82.2574 21.67 82.4908 21.782C82.7241 21.894 83.0134 21.95 83.3588 21.95C83.9468 21.95 84.4134 21.782 84.7588 21.446C85.1134 21.11 85.2908 20.6853 85.2908 20.172C85.2908 19.7893 85.1881 19.4673 84.9828 19.206C84.7774 18.9353 84.4741 18.73 84.0728 18.59C83.6808 18.45 83.2001 18.38 82.6308 18.38H82.2808V17.344H82.6028C83.1814 17.344 83.7134 17.4093 84.1988 17.54C84.6934 17.6707 85.1274 17.8667 85.5008 18.128C85.8741 18.38 86.1634 18.688 86.3688 19.052C86.5741 19.416 86.6768 19.8313 86.6768 20.298C86.6768 20.8767 86.5274 21.3853 86.2288 21.824C85.9394 22.2533 85.5474 22.5847 85.0528 22.818C84.5674 23.0513 84.0308 23.168 83.4428 23.168ZM82.2808 18.212V17.218H82.6308C83.3961 17.218 83.9934 17.0873 84.4228 16.826C84.8521 16.5647 85.0668 16.196 85.0668 15.72C85.0668 15.4493 84.9921 15.2067 84.8428 14.992C84.7028 14.768 84.5021 14.5907 84.2408 14.46C83.9888 14.32 83.6854 14.25 83.3308 14.25C83.1068 14.25 82.8874 14.2873 82.6728 14.362C82.4674 14.4273 82.2761 14.53 82.0988 14.67C81.9214 14.8007 81.7674 14.9733 81.6368 15.188L80.4888 14.67C80.6474 14.3247 80.8714 14.0307 81.1608 13.788C81.4501 13.5453 81.7861 13.3587 82.1688 13.228C82.5514 13.0973 82.9574 13.032 83.3868 13.032C83.9748 13.032 84.4974 13.144 84.9548 13.368C85.4121 13.592 85.7714 13.9 86.0328 14.292C86.3034 14.684 86.4388 15.1273 86.4388 15.622C86.4388 16.042 86.3361 16.4153 86.1308 16.742C85.9348 17.0593 85.6594 17.33 85.3048 17.554C84.9501 17.7687 84.5394 17.932 84.0728 18.044C83.6154 18.156 83.1208 18.212 82.5888 18.212H82.2808Z" fill="#52525B"/>
<rect x="0.5" y="0.5" width="99" height="35" rx="7.5" stroke="#D4D4D8"/>
<g clip-path="url(#clip0_1_77)">
<rect x="269" width="73" height="36" rx="8" fill="white"/>
<path d="M293.5 18H281M281 18L287 12M281 18L287 24" stroke="#52525B" stroke-width="1.5" stroke-linecap="round" stroke-linejoin="round"/>
<rect x="305" width="1" height="36" fill="#D9D9D9"/>
<path d="M318 18H330.5M330.5 18L324.5 12M330.5 18L324.5 24" stroke="#52525B" stroke-width="1.5" stroke-linecap="round" stroke-linejoin="round"/>
</g>
<rect x="269.5" y="0.5" width="72" height="35" rx="7.5" stroke="#D4D4D8"/>
<path d="M16.7048 67.168C16.1821 67.168 15.7061 67.1073 15.2768 66.986C14.8568 66.8647 14.4881 66.7013 14.1708 66.496C13.8628 66.2813 13.6061 66.0433 13.4008 65.782C13.1954 65.5207 13.0508 65.2453 12.9668 64.956L14.2968 64.522C14.4368 64.9047 14.7028 65.236 15.0948 65.516C15.4868 65.796 15.9674 65.9407 16.5368 65.95C17.2274 65.95 17.7688 65.8147 18.1608 65.544C18.5621 65.264 18.7628 64.8953 18.7628 64.438C18.7628 64.018 18.5901 63.6773 18.2448 63.416C17.8994 63.1453 17.4421 62.94 16.8728 62.8L15.7388 62.506C15.2908 62.3847 14.8801 62.212 14.5068 61.988C14.1428 61.764 13.8534 61.4793 13.6388 61.134C13.4241 60.7887 13.3168 60.3733 13.3168 59.888C13.3168 58.992 13.6061 58.292 14.1848 57.788C14.7728 57.284 15.6174 57.032 16.7188 57.032C17.3534 57.032 17.9041 57.1347 18.3708 57.34C18.8374 57.536 19.2201 57.7973 19.5188 58.124C19.8268 58.4507 20.0461 58.81 20.1768 59.202L18.8468 59.65C18.6881 59.23 18.4174 58.894 18.0348 58.642C17.6521 58.3807 17.1808 58.25 16.6208 58.25C16.0328 58.25 15.5661 58.39 15.2208 58.67C14.8848 58.95 14.7168 59.3327 14.7168 59.818C14.7168 60.2287 14.8474 60.546 15.1088 60.77C15.3794 60.9847 15.7388 61.148 16.1868 61.26L17.3208 61.54C18.2354 61.764 18.9401 62.1373 19.4348 62.66C19.9388 63.1733 20.1908 63.738 20.1908 64.354C20.1908 64.886 20.0554 65.3667 19.7848 65.796C19.5234 66.216 19.1314 66.552 18.6088 66.804C18.0954 67.0467 17.4608 67.168 16.7048 67.168ZM26.551 67L26.467 65.712V60H27.783V67H26.551ZM21.623 64.004V60H22.953V63.584L21.623 64.004ZM22.953 63.584C22.953 64.2093 23.023 64.69 23.163 65.026C23.3124 65.362 23.5177 65.5953 23.779 65.726C24.0404 65.8567 24.3344 65.9267 24.661 65.936C25.2304 65.936 25.6737 65.7353 25.991 65.334C26.3084 64.9327 26.467 64.368 26.467 63.64H27.041C27.041 64.3773 26.9337 65.012 26.719 65.544C26.5044 66.0667 26.1917 66.468 25.781 66.748C25.3797 67.028 24.8944 67.168 24.325 67.168C23.485 67.168 22.8224 66.9067 22.337 66.384C21.861 65.8613 21.623 65.068 21.623 64.004L22.953 63.584ZM29.6387 67V60H30.8847L30.9687 61.288V67H29.6387ZM34.4827 67V63.416L35.8127 62.996V67H34.4827ZM34.4827 63.416C34.4827 62.7813 34.408 62.3007 34.2587 61.974C34.1187 61.638 33.918 61.4047 33.6567 61.274C33.4047 61.1433 33.1107 61.0733 32.7747 61.064C32.2054 61.064 31.762 61.2647 31.4447 61.666C31.1274 62.0673 30.9687 62.632 30.9687 63.36H30.3947C30.3947 62.6227 30.502 61.9927 30.7167 61.47C30.9314 60.938 31.2394 60.532 31.6407 60.252C32.0514 59.972 32.5414 59.832 33.1107 59.832C33.9507 59.832 34.6087 60.0933 35.0847 60.616C35.57 61.1293 35.8127 61.9227 35.8127 62.996L34.4827 63.416Z" fill="#A1A1AA"/>
<path d="M65.2969 64.326L60.7609 57.648L61.3489 57.396L62.0629 57.2L65.9829 63.01L65.2969 64.326ZM60.6069 67V57.2H61.9789V67H60.6069ZM65.2969 64.326L64.6249 63.01L68.5449 57.2L69.2589 57.396L69.8329 57.634L65.2969 64.326ZM68.6289 67V57.2H70.0009V67H68.6289ZM75.3297 67.168C74.6297 67.168 74.0137 67.014 73.4817 66.706C72.9497 66.3887 72.5297 65.9547 72.2217 65.404C71.9231 64.8533 71.7737 64.2187 71.7737 63.5C71.7737 62.7813 71.9231 62.1467 72.2217 61.596C72.5204 61.0453 72.9357 60.616 73.4677 60.308C73.9997 59.9907 74.6111 59.832 75.3017 59.832C75.9924 59.832 76.6037 59.9907 77.1357 60.308C77.6677 60.616 78.0831 61.0453 78.3817 61.596C78.6804 62.1467 78.8297 62.7813 78.8297 63.5C78.8297 64.2187 78.6804 64.8533 78.3817 65.404C78.0831 65.9547 77.6677 66.3887 77.1357 66.706C76.6131 67.014 76.0111 67.168 75.3297 67.168ZM75.3297 65.95C75.7497 65.95 76.1231 65.8473 76.4497 65.642C76.7764 65.4273 77.0284 65.138 77.2057 64.774C77.3924 64.41 77.4857 63.9853 77.4857 63.5C77.4857 63.0147 77.3924 62.59 77.2057 62.226C77.0284 61.862 76.7717 61.5773 76.4357 61.372C76.0997 61.1573 75.7217 61.05 75.3017 61.05C74.8724 61.05 74.4944 61.1573 74.1677 61.372C73.8411 61.5773 73.5844 61.862 73.3977 62.226C73.2111 62.59 73.1177 63.0147 73.1177 63.5C73.1177 63.9853 73.2111 64.41 73.3977 64.774C73.5844 65.138 73.8457 65.4273 74.1817 65.642C74.5177 65.8473 74.9004 65.95 75.3297 65.95ZM80.2868 67V60H81.5328L81.6168 61.288V67H80.2868ZM85.1308 67V63.416L86.4608 62.996V67H85.1308ZM85.1308 63.416C85.1308 62.7813 85.0562 62.3007 84.9068 61.974C84.7668 61.638 84.5662 61.4047 84.3048 61.274C84.0528 61.1433 83.7588 61.0733 83.4228 61.064C82.8535 61.064 82.4102 61.2647 82.0928 61.666C81.7755 62.0673 81.6168 62.632 81.6168 63.36H81.0428C81.0428 62.6227 81.1502 61.9927 81.3648 61.47C81.5795 60.938 81.8875 60.532 82.2888 60.252C82.6995 59.972 83.1895 59.832 83.7588 59.832C84.5988 59.832 85.2568 60.0933 85.7328 60.616C86.2182 61.1293 86.4608 61.9227 86.4608 62.996L85.1308 63.416Z" fill="#A1A1AA"/>
<path d="M114.002 67V58.012H115.388V67H114.002ZM110.936 58.46V57.2H118.454V58.46H110.936ZM123.684 67L123.6 65.712V60H124.916V67H123.684ZM118.756 64.004V60H120.086V63.584L118.756 64.004ZM120.086 63.584C120.086 64.2093 120.156 64.69 120.296 65.026C120.446 65.362 120.651 65.5953 120.912 65.726C121.174 65.8567 121.468 65.9267 121.794 65.936C122.364 65.936 122.807 65.7353 123.124 65.334C123.442 64.9327 123.6 64.368 123.6 63.64H124.174C124.174 64.3773 124.067 65.012 123.852 65.544C123.638 66.0667 123.325 66.468 122.914 66.748C122.513 67.028 122.028 67.168 121.458 67.168C120.618 67.168 119.956 66.9067 119.47 66.384C118.994 65.8613 118.756 65.068 118.756 64.004L120.086 63.584ZM129.866 67.168C129.185 67.168 128.583 67.014 128.06 66.706C127.537 66.3887 127.127 65.9547 126.828 65.404C126.529 64.8533 126.38 64.2187 126.38 63.5C126.38 62.7813 126.529 62.1467 126.828 61.596C127.127 61.0453 127.537 60.616 128.06 60.308C128.592 59.9907 129.199 59.832 129.88 59.832C130.515 59.832 131.075 59.9953 131.56 60.322C132.055 60.6393 132.437 61.0967 132.708 61.694C132.988 62.282 133.128 62.9773 133.128 63.78H131.798C131.807 63.1827 131.733 62.6787 131.574 62.268C131.425 61.8573 131.201 61.5493 130.902 61.344C130.613 61.1293 130.263 61.022 129.852 61.022C129.413 61.022 129.035 61.1247 128.718 61.33C128.401 61.526 128.153 61.8107 127.976 62.184C127.808 62.548 127.724 62.996 127.724 63.528C127.724 64.0227 127.822 64.452 128.018 64.816C128.214 65.1707 128.48 65.4507 128.816 65.656C129.152 65.852 129.535 65.95 129.964 65.95C130.421 65.95 130.799 65.8427 131.098 65.628C131.406 65.4133 131.649 65.138 131.826 64.802L133.016 65.348C132.829 65.712 132.587 66.034 132.288 66.314C131.989 66.5847 131.635 66.7947 131.224 66.944C130.823 67.0933 130.37 67.168 129.866 67.168ZM127.248 63.78L127.262 62.688H132.386V63.78H127.248Z" fill="#A1A1AA"/>
<path d="M165.613 67L168.581 57.2H169.967L166.957 67H165.613ZM159.663 67L156.695 57.2H158.095L161.007 67H159.663ZM159.817 67L162.645 57.2H163.947L161.133 67H159.817ZM165.487 67L162.729 57.2H164.031L166.845 67H165.487ZM173.548 67.168C172.867 67.168 172.265 67.014 171.742 66.706C171.22 66.3887 170.809 65.9547 170.51 65.404C170.212 64.8533 170.062 64.2187 170.062 63.5C170.062 62.7813 170.212 62.1467 170.51 61.596C170.809 61.0453 171.22 60.616 171.742 60.308C172.274 59.9907 172.881 59.832 173.562 59.832C174.197 59.832 174.757 59.9953 175.242 60.322C175.737 60.6393 176.12 61.0967 176.39 61.694C176.67 62.282 176.81 62.9773 176.81 63.78H175.48C175.49 63.1827 175.415 62.6787 175.256 62.268C175.107 61.8573 174.883 61.5493 174.584 61.344C174.295 61.1293 173.945 61.022 173.534 61.022C173.096 61.022 172.718 61.1247 172.4 61.33C172.083 61.526 171.836 61.8107 171.658 62.184C171.49 62.548 171.406 62.996 171.406 63.528C171.406 64.0227 171.504 64.452 171.7 64.816C171.896 65.1707 172.162 65.4507 172.498 65.656C172.834 65.852 173.217 65.95 173.646 65.95C174.104 65.95 174.482 65.8427 174.78 65.628C175.088 65.4133 175.331 65.138 175.508 64.802L176.698 65.348C176.512 65.712 176.269 66.034 175.97 66.314C175.672 66.5847 175.317 66.7947 174.906 66.944C174.505 67.0933 174.052 67.168 173.548 67.168ZM170.93 63.78L170.944 62.688H176.068V63.78H170.93ZM183.248 67L183.192 65.698V57.2H184.508V67H183.248ZM180.896 67.168C180.262 67.168 179.706 67.014 179.23 66.706C178.764 66.398 178.395 65.9687 178.124 65.418C177.863 64.8673 177.732 64.228 177.732 63.5C177.732 62.7627 177.863 62.1233 178.124 61.582C178.395 61.0313 178.764 60.602 179.23 60.294C179.706 59.986 180.262 59.832 180.896 59.832C181.484 59.832 181.993 59.986 182.422 60.294C182.861 60.602 183.197 61.0313 183.43 61.582C183.664 62.1233 183.78 62.7627 183.78 63.5C183.78 64.228 183.664 64.8673 183.43 65.418C183.197 65.9687 182.861 66.398 182.422 66.706C181.993 67.014 181.484 67.168 180.896 67.168ZM181.204 65.964C181.596 65.964 181.942 65.8613 182.24 65.656C182.539 65.4413 182.772 65.152 182.94 64.788C183.108 64.4147 183.192 63.9853 183.192 63.5C183.192 63.0147 183.108 62.59 182.94 62.226C182.772 61.8527 182.539 61.5633 182.24 61.358C181.942 61.1433 181.592 61.036 181.19 61.036C180.78 61.036 180.416 61.1433 180.098 61.358C179.781 61.5633 179.534 61.8527 179.356 62.226C179.179 62.59 179.09 63.0147 179.09 63.5C179.09 63.9853 179.179 64.4147 179.356 64.788C179.543 65.152 179.795 65.4413 180.112 65.656C180.43 65.8613 180.794 65.964 181.204 65.964Z" fill="#A1A1AA"/>
<path d="M211.32 67V58.012H212.706V67H211.32ZM208.254 58.46V57.2H215.772V58.46H208.254ZM216.871 67L216.857 57.046H218.187V67H216.871ZM221.715 67V63.416L223.031 62.996V67H221.715ZM221.715 63.416C221.715 62.7813 221.641 62.3007 221.491 61.974C221.342 61.638 221.137 61.4047 220.875 61.274C220.623 61.1433 220.334 61.0733 220.007 61.064C219.429 61.064 218.981 61.2647 218.663 61.666C218.346 62.0673 218.187 62.632 218.187 63.36H217.627C217.627 62.6227 217.735 61.9927 217.949 61.47C218.164 60.938 218.472 60.532 218.873 60.252C219.284 59.972 219.769 59.832 220.329 59.832C221.179 59.832 221.841 60.0933 222.317 60.616C222.803 61.1293 223.041 61.9227 223.031 62.996L221.715 63.416ZM229.465 67L229.381 65.712V60H230.697V67H229.465ZM224.537 64.004V60H225.867V63.584L224.537 64.004ZM225.867 63.584C225.867 64.2093 225.937 64.69 226.077 65.026C226.226 65.362 226.432 65.5953 226.693 65.726C226.954 65.8567 227.248 65.9267 227.575 65.936C228.144 65.936 228.588 65.7353 228.905 65.334C229.222 64.9327 229.381 64.368 229.381 63.64H229.955C229.955 64.3773 229.848 65.012 229.633 65.544C229.418 66.0667 229.106 66.468 228.695 66.748C228.294 67.028 227.808 67.168 227.239 67.168C226.399 67.168 225.736 66.9067 225.251 66.384C224.775 65.8613 224.537 65.068 224.537 64.004L225.867 63.584Z" fill="#A1A1AA"/>
<path d="M262.085 67V57.2H263.457V67H262.085ZM263.275 62.8V61.54H267.433V62.8H263.275ZM263.275 58.46V57.2H268.021V58.46H263.275ZM270.081 63.234C270.081 62.478 270.226 61.862 270.515 61.386C270.804 60.91 271.178 60.5553 271.635 60.322C272.092 60.0887 272.573 59.972 273.077 59.972V61.232C272.657 61.232 272.256 61.2973 271.873 61.428C271.5 61.5493 271.192 61.7547 270.949 62.044C270.716 62.324 270.599 62.7067 270.599 63.192L270.081 63.234ZM269.269 67V60H270.599V67H269.269ZM274.234 67L274.262 60H275.578L275.564 67H274.234ZM274.906 58.516C274.691 58.516 274.505 58.4367 274.346 58.278C274.187 58.11 274.108 57.9187 274.108 57.704C274.108 57.48 274.187 57.2933 274.346 57.144C274.505 56.9853 274.691 56.906 274.906 56.906C275.13 56.906 275.317 56.9853 275.466 57.144C275.625 57.2933 275.704 57.48 275.704 57.704C275.704 57.9187 275.625 58.11 275.466 58.278C275.317 58.4367 275.13 58.516 274.906 58.516Z" fill="#A1A1AA"/>
<path d="M311.399 67.168C310.877 67.168 310.401 67.1073 309.971 66.986C309.551 66.8647 309.183 66.7013 308.865 66.496C308.557 66.2813 308.301 66.0433 308.095 65.782C307.89 65.5207 307.745 65.2453 307.661 64.956L308.991 64.522C309.131 64.9047 309.397 65.236 309.789 65.516C310.181 65.796 310.662 65.9407 311.231 65.95C311.922 65.95 312.463 65.8147 312.855 65.544C313.257 65.264 313.457 64.8953 313.457 64.438C313.457 64.018 313.285 63.6773 312.939 63.416C312.594 63.1453 312.137 62.94 311.567 62.8L310.433 62.506C309.985 62.3847 309.575 62.212 309.201 61.988C308.837 61.764 308.548 61.4793 308.333 61.134C308.119 60.7887 308.011 60.3733 308.011 59.888C308.011 58.992 308.301 58.292 308.879 57.788C309.467 57.284 310.312 57.032 311.413 57.032C312.048 57.032 312.599 57.1347 313.065 57.34C313.532 57.536 313.915 57.7973 314.213 58.124C314.521 58.4507 314.741 58.81 314.871 59.202L313.541 59.65C313.383 59.23 313.112 58.894 312.729 58.642C312.347 58.3807 311.875 58.25 311.315 58.25C310.727 58.25 310.261 58.39 309.915 58.67C309.579 58.95 309.411 59.3327 309.411 59.818C309.411 60.2287 309.542 60.546 309.803 60.77C310.074 60.9847 310.433 61.148 310.881 61.26L312.015 61.54C312.93 61.764 313.635 62.1373 314.129 62.66C314.633 63.1733 314.885 63.738 314.885 64.354C314.885 64.886 314.75 65.3667 314.479 65.796C314.218 66.216 313.826 66.552 313.303 66.804C312.79 67.0467 312.155 67.168 311.399 67.168ZM320.77 67L320.7 65.782V63.346C320.7 62.8327 320.639 62.408 320.518 62.072C320.406 61.7267 320.228 61.4653 319.986 61.288C319.752 61.1107 319.44 61.022 319.048 61.022C318.684 61.022 318.362 61.0967 318.082 61.246C317.811 61.3953 317.587 61.6287 317.41 61.946L316.206 61.498C316.374 61.1807 316.588 60.896 316.85 60.644C317.111 60.392 317.424 60.196 317.788 60.056C318.161 59.9067 318.59 59.832 319.076 59.832C319.729 59.832 320.275 59.958 320.714 60.21C321.162 60.462 321.493 60.84 321.708 61.344C321.932 61.8387 322.039 62.4547 322.03 63.192L322.016 67H320.77ZM318.726 67.168C317.895 67.168 317.246 66.9813 316.78 66.608C316.322 66.2253 316.094 65.698 316.094 65.026C316.094 64.3073 316.332 63.7613 316.808 63.388C317.293 63.0053 317.965 62.814 318.824 62.814H320.77V63.864H319.188C318.544 63.864 318.091 63.9667 317.83 64.172C317.568 64.368 317.438 64.6433 317.438 64.998C317.438 65.3247 317.559 65.5813 317.802 65.768C318.054 65.9453 318.399 66.034 318.838 66.034C319.22 66.034 319.547 65.9453 319.818 65.768C320.098 65.5907 320.312 65.3573 320.462 65.068C320.62 64.7693 320.7 64.438 320.7 64.074H321.33C321.33 65.026 321.11 65.782 320.672 66.342C320.233 66.8927 319.584 67.168 318.726 67.168ZM326.406 67.168C325.706 67.168 325.165 66.9907 324.782 66.636C324.4 66.272 324.208 65.754 324.208 65.082V57.816H325.538V64.886C325.538 65.2313 325.622 65.4973 325.79 65.684C325.968 65.8613 326.22 65.95 326.546 65.95C326.64 65.95 326.742 65.9313 326.854 65.894C326.966 65.8567 327.102 65.782 327.26 65.67L327.764 66.706C327.522 66.8647 327.288 66.9813 327.064 67.056C326.85 67.1307 326.63 67.168 326.406 67.168ZM323.018 61.148V60H327.526V61.148H323.018Z" fill="#A1A1AA"/>
<g clip-path="url(#clip1_1_77)">
<rect y="80" width="342" height="250" rx="8" fill="white"/>
<path d="M24.889 111.4L24.905 101.048L25.049 100.2H26.441L26.425 111.4H24.889ZM22.425 103.256V101.832C22.6597 101.843 22.9317 101.768 23.241 101.608C23.561 101.448 23.881 101.24 24.201 100.984C24.521 100.728 24.8037 100.461 25.049 100.184L26.025 101.24C25.6623 101.624 25.2837 101.971 24.889 102.28C24.4943 102.589 24.089 102.835 23.673 103.016C23.2677 103.197 22.8517 103.277 22.425 103.256Z" fill="#D4D4D8"/>
<rect x="0.5" y="80.5" width="48.7143" height="49.8" stroke="#D4D4D8"/>
<path d="M71.5038 110.696L69.9518 110.136C69.9518 109.805 70.0265 109.464 70.1758 109.112C70.3358 108.749 70.5598 108.392 70.8478 108.04C71.1465 107.688 71.4985 107.363 71.9038 107.064L74.0638 105.464C74.3198 105.283 74.5491 105.075 74.7518 104.84C74.9651 104.595 75.1305 104.344 75.2478 104.088C75.3758 103.821 75.4398 103.56 75.4398 103.304C75.4398 102.963 75.3545 102.653 75.1838 102.376C75.0131 102.088 74.7731 101.864 74.4638 101.704C74.1545 101.533 73.7865 101.448 73.3598 101.448C72.9545 101.448 72.5971 101.528 72.2878 101.688C71.9891 101.837 71.7385 102.04 71.5358 102.296C71.3331 102.552 71.1891 102.824 71.1038 103.112L69.4878 102.808C69.6051 102.317 69.8345 101.859 70.1758 101.432C70.5171 101.005 70.9545 100.664 71.4878 100.408C72.0211 100.141 72.6238 100.008 73.2958 100.008C74.0638 100.008 74.7251 100.152 75.2798 100.44C75.8451 100.717 76.2825 101.107 76.5918 101.608C76.9011 102.099 77.0558 102.664 77.0558 103.304C77.0558 103.923 76.8851 104.493 76.5438 105.016C76.2131 105.539 75.7331 106.045 75.1038 106.536L73.1038 108.04C72.7945 108.264 72.5171 108.509 72.2718 108.776C72.0265 109.043 71.8345 109.336 71.6958 109.656C71.5678 109.965 71.5038 110.312 71.5038 110.696ZM69.9518 111.4V110.136L71.1358 109.992H77.1998V111.4H69.9518Z" fill="#D4D4D8"/>
<rect x="49.2143" y="80.5" width="48.7143" height="49.8" stroke="#D4D4D8"/>
<path d="M122.263 111.592C121.687 111.592 121.164 111.507 120.695 111.336C120.225 111.165 119.831 110.931 119.511 110.632C119.191 110.333 118.945 110.008 118.775 109.656L120.135 109.032C120.241 109.181 120.375 109.352 120.535 109.544C120.695 109.725 120.908 109.88 121.175 110.008C121.441 110.136 121.772 110.2 122.167 110.2C122.839 110.2 123.372 110.008 123.767 109.624C124.172 109.24 124.375 108.755 124.375 108.168C124.375 107.731 124.257 107.363 124.023 107.064C123.788 106.755 123.441 106.52 122.983 106.36C122.535 106.2 121.985 106.12 121.335 106.12H120.935V104.936H121.303C121.964 104.936 122.572 105.011 123.127 105.16C123.692 105.309 124.188 105.533 124.615 105.832C125.041 106.12 125.372 106.472 125.607 106.888C125.841 107.304 125.959 107.779 125.959 108.312C125.959 108.973 125.788 109.555 125.447 110.056C125.116 110.547 124.668 110.925 124.103 111.192C123.548 111.459 122.935 111.592 122.263 111.592ZM120.935 105.928V104.792H121.335C122.209 104.792 122.892 104.643 123.383 104.344C123.873 104.045 124.119 103.624 124.119 103.08C124.119 102.771 124.033 102.493 123.863 102.248C123.703 101.992 123.473 101.789 123.175 101.64C122.887 101.48 122.54 101.4 122.135 101.4C121.879 101.4 121.628 101.443 121.383 101.528C121.148 101.603 120.929 101.72 120.727 101.88C120.524 102.029 120.348 102.227 120.199 102.472L118.887 101.88C119.068 101.485 119.324 101.149 119.655 100.872C119.985 100.595 120.369 100.381 120.807 100.232C121.244 100.083 121.708 100.008 122.199 100.008C122.871 100.008 123.468 100.136 123.991 100.392C124.513 100.648 124.924 101 125.223 101.448C125.532 101.896 125.687 102.403 125.687 102.968C125.687 103.448 125.569 103.875 125.335 104.248C125.111 104.611 124.796 104.92 124.391 105.176C123.985 105.421 123.516 105.608 122.983 105.736C122.46 105.864 121.895 105.928 121.287 105.928H120.935Z" fill="#52525B"/>
<rect x="97.9286" y="80.5" width="48.7143" height="49.8" stroke="#D4D4D8"/>
<path d="M167.784 108.28L166.632 107.592L171.688 100.2L172.68 101.096L167.784 108.28ZM166.632 108.824V107.592L167.592 107.432H175.512V108.824H166.632ZM171.8 111.4V101.16L171.688 100.2H173.32V111.4H171.8Z" fill="#52525B"/>
<rect x="146.643" y="80.5" width="48.7143" height="49.8" stroke="#D4D4D8"/>
<path d="M219.761 111.592C219.292 111.592 218.812 111.523 218.321 111.384C217.841 111.235 217.393 111.016 216.977 110.728C216.561 110.429 216.23 110.051 215.985 109.592L217.313 108.984C217.654 109.411 218.028 109.725 218.433 109.928C218.838 110.12 219.26 110.216 219.697 110.216C220.39 110.216 220.95 110.008 221.377 109.592C221.804 109.176 222.017 108.621 222.017 107.928C222.017 107.256 221.809 106.707 221.393 106.28C220.977 105.853 220.433 105.64 219.761 105.64C219.377 105.64 219.009 105.725 218.657 105.896C218.305 106.056 218.033 106.259 217.841 106.504L216.417 106.184L216.993 100.2H223.057V101.64H217.137L216.993 100.248H218.561L217.873 106.28L216.785 106.184C216.924 105.96 217.1 105.741 217.313 105.528C217.537 105.315 217.793 105.123 218.081 104.952C218.38 104.771 218.7 104.627 219.041 104.52C219.393 104.413 219.756 104.365 220.129 104.376C220.801 104.376 221.398 104.525 221.921 104.824C222.444 105.123 222.854 105.539 223.153 106.072C223.462 106.595 223.617 107.197 223.617 107.88C223.617 108.616 223.452 109.261 223.121 109.816C222.79 110.371 222.337 110.808 221.761 111.128C221.185 111.437 220.518 111.592 219.761 111.592Z" fill="#52525B"/>
<rect x="195.357" y="80.5" width="48.7143" height="49.8" stroke="#D4D4D8"/>
<path d="M268.642 111.592C267.874 111.592 267.229 111.448 266.706 111.16C266.183 110.872 265.762 110.483 265.442 109.992C265.133 109.491 264.909 108.915 264.77 108.264C264.631 107.613 264.562 106.92 264.562 106.184C264.562 105.256 264.658 104.413 264.85 103.656C265.042 102.899 265.325 102.248 265.698 101.704C266.071 101.16 266.53 100.744 267.074 100.456C267.618 100.157 268.242 100.008 268.946 100.008C269.511 100.008 270.071 100.099 270.626 100.28C271.181 100.451 271.677 100.691 272.114 101L271.266 102.136C270.925 101.901 270.557 101.725 270.162 101.608C269.767 101.48 269.399 101.416 269.058 101.416C268.045 101.416 267.266 101.848 266.722 102.712C266.178 103.565 265.933 104.883 265.986 106.664L265.666 106.392C265.922 105.763 266.322 105.261 266.866 104.888C267.421 104.504 268.071 104.312 268.818 104.312C269.543 104.312 270.183 104.472 270.738 104.792C271.293 105.112 271.725 105.549 272.034 106.104C272.343 106.648 272.498 107.277 272.498 107.992C272.498 108.685 272.338 109.304 272.018 109.848C271.698 110.392 271.245 110.819 270.658 111.128C270.082 111.437 269.41 111.592 268.642 111.592ZM268.658 110.216C269.095 110.216 269.485 110.12 269.826 109.928C270.167 109.736 270.434 109.469 270.626 109.128C270.829 108.776 270.93 108.381 270.93 107.944C270.93 107.496 270.829 107.101 270.626 106.76C270.434 106.408 270.167 106.136 269.826 105.944C269.485 105.752 269.095 105.656 268.658 105.656C268.21 105.656 267.81 105.752 267.458 105.944C267.117 106.136 266.845 106.408 266.642 106.76C266.45 107.101 266.354 107.496 266.354 107.944C266.354 108.381 266.45 108.776 266.642 109.128C266.845 109.469 267.117 109.736 267.458 109.928C267.81 110.12 268.21 110.216 268.658 110.216Z" fill="#52525B"/>
<rect x="244.071" y="80.5" width="48.7143" height="49.8" stroke="#D4D4D8"/>
<path d="M314.167 111.4L319.447 101.304L320.999 101.464L315.911 111.4H314.167ZM313.431 101.64V100.2H320.999V101.464L319.639 101.64H313.431Z" fill="#52525B"/>
<rect x="292.786" y="80.5" width="48.7143" height="49.8" stroke="#D4D4D8"/>
<path d="M24.8391 161.392C24.0071 161.392 23.2871 161.264 22.6791 161.008C22.0711 160.741 21.5964 160.379 21.2551 159.92C20.9244 159.451 20.7591 158.907 20.7591 158.288C20.7591 157.637 20.9244 157.067 21.2551 156.576C21.5964 156.075 22.0711 155.685 22.6791 155.408C23.2871 155.131 24.0071 154.997 24.8391 155.008C25.6817 154.997 26.4071 155.131 27.0151 155.408C27.6231 155.685 28.0924 156.075 28.4231 156.576C28.7644 157.067 28.9351 157.637 28.9351 158.288C28.9351 158.907 28.7644 159.451 28.4231 159.92C28.0924 160.379 27.6231 160.741 27.0151 161.008C26.4071 161.264 25.6817 161.392 24.8391 161.392ZM24.8391 160.032C25.5751 160.032 26.1724 159.856 26.6311 159.504C27.1004 159.141 27.3351 158.677 27.3351 158.112C27.3351 157.525 27.1004 157.051 26.6311 156.688C26.1724 156.325 25.5751 156.144 24.8391 156.144C24.3591 156.144 23.9324 156.224 23.5591 156.384C23.1857 156.544 22.8924 156.779 22.6791 157.088C22.4764 157.387 22.3751 157.728 22.3751 158.112C22.3751 158.485 22.4764 158.821 22.6791 159.12C22.8924 159.408 23.1857 159.632 23.5591 159.792C23.9324 159.952 24.3591 160.032 24.8391 160.032ZM24.8391 155.808C24.1031 155.808 23.4577 155.685 22.9031 155.44C22.3484 155.184 21.9164 154.837 21.6071 154.4C21.3084 153.952 21.1591 153.435 21.1591 152.848C21.1591 152.251 21.3084 151.723 21.6071 151.264C21.9164 150.805 22.3484 150.448 22.9031 150.192C23.4577 149.936 24.1031 149.808 24.8391 149.808C25.5857 149.808 26.2364 149.936 26.7911 150.192C27.3457 150.448 27.7724 150.805 28.0711 151.264C28.3804 151.723 28.5351 152.251 28.5351 152.848C28.5351 153.435 28.3804 153.952 28.0711 154.4C27.7724 154.837 27.3457 155.184 26.7911 155.44C26.2364 155.685 25.5857 155.808 24.8391 155.808ZM24.8391 154.752C25.4684 154.752 25.9804 154.592 26.3751 154.272C26.7804 153.941 26.9831 153.52 26.9831 153.008C26.9831 152.453 26.7804 152.005 26.3751 151.664C25.9804 151.312 25.4684 151.136 24.8391 151.136C24.2204 151.136 23.7137 151.312 23.3191 151.664C22.9244 152.005 22.7271 152.453 22.7271 153.008C22.7271 153.52 22.9244 153.941 23.3191 154.272C23.7137 154.592 24.2204 154.752 24.8391 154.752Z" fill="#52525B"/>
<rect x="0.5" y="130.3" width="48.7143" height="49.8" stroke="#D4D4D8"/>
<path d="M73.3527 149.808C74.1314 149.808 74.7767 149.952 75.2887 150.24C75.8114 150.528 76.2327 150.923 76.5527 151.424C76.8727 151.915 77.1021 152.485 77.2407 153.136C77.3794 153.787 77.4487 154.48 77.4487 155.216C77.4487 156.144 77.3474 156.992 77.1447 157.76C76.9527 158.517 76.6701 159.168 76.2967 159.712C75.9341 160.245 75.4807 160.661 74.9367 160.96C74.3927 161.248 73.7634 161.392 73.0487 161.392C72.4834 161.392 71.9234 161.307 71.3687 161.136C70.8247 160.965 70.3341 160.72 69.8967 160.4L70.7447 159.264C71.0754 159.499 71.4381 159.68 71.8327 159.808C72.2274 159.936 72.6007 160 72.9527 160C73.9661 160 74.7447 159.568 75.2887 158.704C75.8327 157.84 76.0727 156.517 76.0087 154.736L76.3447 155.008C76.0887 155.637 75.6834 156.144 75.1287 156.528C74.5847 156.901 73.9341 157.088 73.1767 157.088C72.4621 157.088 71.8274 156.928 71.2727 156.608C70.7181 156.288 70.2807 155.856 69.9607 155.312C69.6514 154.757 69.4967 154.128 69.4967 153.424C69.4967 152.709 69.6567 152.085 69.9767 151.552C70.2967 151.008 70.7447 150.581 71.3207 150.272C71.9074 149.963 72.5847 149.808 73.3527 149.808ZM73.3527 151.184C72.9154 151.184 72.5207 151.28 72.1687 151.472C71.8274 151.664 71.5554 151.931 71.3527 152.272C71.1607 152.613 71.0647 153.008 71.0647 153.456C71.0647 153.904 71.1607 154.304 71.3527 154.656C71.5554 154.997 71.8274 155.269 72.1687 155.472C72.5207 155.664 72.9154 155.76 73.3527 155.76C73.8007 155.76 74.1954 155.664 74.5367 155.472C74.8887 155.269 75.1607 154.997 75.3527 154.656C75.5554 154.304 75.6567 153.904 75.6567 153.456C75.6567 153.008 75.5554 152.613 75.3527 152.272C75.1607 151.931 74.8887 151.664 74.5367 151.472C74.1954 151.28 73.8007 151.184 73.3527 151.184Z" fill="#52525B"/>
<rect x="49.2143" y="130.3" width="48.7143" height="49.8" stroke="#D4D4D8"/>
<path d="M117.177 161.2L117.193 150.848L117.337 150H118.729L118.713 161.2H117.177ZM114.713 153.056V151.632C114.948 151.643 115.22 151.568 115.529 151.408C115.849 151.248 116.169 151.04 116.489 150.784C116.809 150.528 117.092 150.261 117.337 149.984L118.313 151.04C117.95 151.424 117.572 151.771 117.177 152.08C116.782 152.389 116.377 152.635 115.961 152.816C115.556 152.997 115.14 153.077 114.713 153.056ZM125.609 161.392C124.745 161.392 123.977 161.147 123.305 160.656C122.633 160.155 122.105 159.472 121.721 158.608C121.348 157.733 121.161 156.731 121.161 155.6C121.161 154.469 121.348 153.472 121.721 152.608C122.105 151.733 122.628 151.051 123.289 150.56C123.961 150.059 124.735 149.808 125.609 149.808C126.484 149.808 127.252 150.059 127.913 150.56C128.585 151.051 129.113 151.733 129.497 152.608C129.881 153.472 130.073 154.469 130.073 155.6C130.073 156.731 129.881 157.733 129.497 158.608C129.124 159.472 128.601 160.155 127.929 160.656C127.257 161.147 126.484 161.392 125.609 161.392ZM125.609 159.952C126.175 159.952 126.676 159.765 127.113 159.392C127.561 159.019 127.908 158.507 128.153 157.856C128.399 157.205 128.521 156.453 128.521 155.6C128.521 154.747 128.399 153.995 128.153 153.344C127.908 152.683 127.561 152.165 127.113 151.792C126.676 151.419 126.175 151.232 125.609 151.232C125.044 151.232 124.543 151.419 124.105 151.792C123.668 152.165 123.327 152.683 123.081 153.344C122.836 153.995 122.713 154.747 122.713 155.6C122.713 156.453 122.836 157.211 123.081 157.872C123.327 158.523 123.668 159.035 124.105 159.408C124.543 159.771 125.044 159.952 125.609 159.952Z" fill="#52525B"/>
<rect x="97.9286" y="130.3" width="48.7143" height="49.8" stroke="#D4D4D8"/>
<path d="M167.704 161.2L167.72 150.848L167.864 150H169.256L169.24 161.2H167.704ZM165.24 153.056V151.632C165.474 151.643 165.746 151.568 166.056 151.408C166.376 151.248 166.696 151.04 167.016 150.784C167.336 150.528 167.618 150.261 167.864 149.984L168.84 151.04C168.477 151.424 168.098 151.771 167.704 152.08C167.309 152.389 166.904 152.635 166.488 152.816C166.082 152.997 165.666 153.077 165.24 153.056ZM174.36 161.2L174.376 150.848L174.52 150H175.912L175.896 161.2H174.36ZM171.896 153.056V151.632C172.131 151.643 172.403 151.568 172.712 151.408C173.032 151.248 173.352 151.04 173.672 150.784C173.992 150.528 174.275 150.261 174.52 149.984L175.496 151.04C175.133 151.424 174.755 151.771 174.36 152.08C173.965 152.389 173.56 152.635 173.144 152.816C172.739 152.997 172.323 153.077 171.896 153.056Z" fill="#52525B"/>
<rect x="146.643" y="130.3" width="48.7143" height="49.8" stroke="#D4D4D8"/>
<path d="M215.231 161.2L215.247 150.848L215.391 150H216.783L216.767 161.2H215.231ZM212.767 153.056V151.632C213.001 151.643 213.273 151.568 213.583 151.408C213.903 151.248 214.223 151.04 214.543 150.784C214.863 150.528 215.145 150.261 215.391 149.984L216.367 151.04C216.004 151.424 215.625 151.771 215.231 152.08C214.836 152.389 214.431 152.635 214.015 152.816C213.609 152.997 213.193 153.077 212.767 153.056ZM220.975 160.496L219.423 159.936C219.423 159.605 219.497 159.264 219.647 158.912C219.807 158.549 220.031 158.192 220.319 157.84C220.617 157.488 220.969 157.163 221.375 156.864L223.535 155.264C223.791 155.083 224.02 154.875 224.223 154.64C224.436 154.395 224.601 154.144 224.719 153.888C224.847 153.621 224.911 153.36 224.911 153.104C224.911 152.763 224.825 152.453 224.655 152.176C224.484 151.888 224.244 151.664 223.935 151.504C223.625 151.333 223.257 151.248 222.831 151.248C222.425 151.248 222.068 151.328 221.759 151.488C221.46 151.637 221.209 151.84 221.007 152.096C220.804 152.352 220.66 152.624 220.575 152.912L218.959 152.608C219.076 152.117 219.305 151.659 219.647 151.232C219.988 150.805 220.425 150.464 220.959 150.208C221.492 149.941 222.095 149.808 222.767 149.808C223.535 149.808 224.196 149.952 224.751 150.24C225.316 150.517 225.753 150.907 226.063 151.408C226.372 151.899 226.527 152.464 226.527 153.104C226.527 153.723 226.356 154.293 226.015 154.816C225.684 155.339 225.204 155.845 224.575 156.336L222.575 157.84C222.265 158.064 221.988 158.309 221.743 158.576C221.497 158.843 221.305 159.136 221.167 159.456C221.039 159.765 220.975 160.112 220.975 160.496ZM219.423 161.2V159.936L220.607 159.792H226.671V161.2H219.423Z" fill="#52525B"/>
<rect x="195.357" y="130.3" width="48.7143" height="49.8" stroke="#D4D4D8"/>
<path d="M264.085 161.2L264.101 150.848L264.245 150H265.637L265.621 161.2H264.085ZM261.621 153.056V151.632C261.856 151.643 262.128 151.568 262.437 151.408C262.757 151.248 263.077 151.04 263.397 150.784C263.717 150.528 264 150.261 264.245 149.984L265.221 151.04C264.859 151.424 264.48 151.771 264.085 152.08C263.691 152.389 263.285 152.635 262.869 152.816C262.464 152.997 262.048 153.077 261.621 153.056ZM271.734 161.392C271.158 161.392 270.635 161.307 270.166 161.136C269.696 160.965 269.302 160.731 268.982 160.432C268.662 160.133 268.416 159.808 268.246 159.456L269.606 158.832C269.712 158.981 269.846 159.152 270.006 159.344C270.166 159.525 270.379 159.68 270.646 159.808C270.912 159.936 271.243 160 271.638 160C272.31 160 272.843 159.808 273.238 159.424C273.643 159.04 273.846 158.555 273.846 157.968C273.846 157.531 273.728 157.163 273.494 156.864C273.259 156.555 272.912 156.32 272.454 156.16C272.006 156 271.456 155.92 270.806 155.92H270.406V154.736H270.774C271.435 154.736 272.043 154.811 272.598 154.96C273.163 155.109 273.659 155.333 274.086 155.632C274.512 155.92 274.843 156.272 275.078 156.688C275.312 157.104 275.43 157.579 275.43 158.112C275.43 158.773 275.259 159.355 274.918 159.856C274.587 160.347 274.139 160.725 273.574 160.992C273.019 161.259 272.406 161.392 271.734 161.392ZM270.406 155.728V154.592H270.806C271.68 154.592 272.363 154.443 272.854 154.144C273.344 153.845 273.59 153.424 273.59 152.88C273.59 152.571 273.504 152.293 273.334 152.048C273.174 151.792 272.944 151.589 272.646 151.44C272.358 151.28 272.011 151.2 271.606 151.2C271.35 151.2 271.099 151.243 270.854 151.328C270.619 151.403 270.4 151.52 270.198 151.68C269.995 151.829 269.819 152.027 269.67 152.272L268.358 151.68C268.539 151.285 268.795 150.949 269.126 150.672C269.456 150.395 269.84 150.181 270.278 150.032C270.715 149.883 271.179 149.808 271.67 149.808C272.342 149.808 272.939 149.936 273.462 150.192C273.984 150.448 274.395 150.8 274.694 151.248C275.003 151.696 275.158 152.203 275.158 152.768C275.158 153.248 275.04 153.675 274.806 154.048C274.582 154.411 274.267 154.72 273.862 154.976C273.456 155.221 272.987 155.408 272.454 155.536C271.931 155.664 271.366 155.728 270.758 155.728H270.406Z" fill="#D4D4D8"/>
<rect x="244.071" y="130.3" width="48.7143" height="49.8" stroke="#D4D4D8"/>
<path d="M312.183 161.2L312.199 150.848L312.343 150H313.735L313.719 161.2H312.183ZM309.719 153.056V151.632C309.953 151.643 310.225 151.568 310.535 151.408C310.855 151.248 311.175 151.04 311.495 150.784C311.815 150.528 312.097 150.261 312.343 149.984L313.319 151.04C312.956 151.424 312.577 151.771 312.183 152.08C311.788 152.389 311.383 152.635 310.967 152.816C310.561 152.997 310.145 153.077 309.719 153.056ZM317.255 158.08L316.103 157.392L321.159 150L322.151 150.896L317.255 158.08ZM316.103 158.624V157.392L317.063 157.232H324.983V158.624H316.103ZM321.271 161.2V150.96L321.159 150H322.791V161.2H321.271Z" fill="#D4D4D8"/>
<rect x="292.786" y="130.3" width="48.7143" height="49.8" stroke="#D4D4D8"/>
<path d="M20.2796 211L20.2956 200.648L20.4396 199.8H21.8316L21.8156 211H20.2796ZM17.8156 202.856V201.432C18.0503 201.443 18.3223 201.368 18.6316 201.208C18.9516 201.048 19.2716 200.84 19.5916 200.584C19.9116 200.328 20.1943 200.061 20.4396 199.784L21.4156 200.84C21.053 201.224 20.6743 201.571 20.2796 201.88C19.885 202.189 19.4796 202.435 19.0636 202.616C18.6583 202.797 18.2423 202.877 17.8156 202.856ZM28.2319 211.192C27.7625 211.192 27.2825 211.123 26.7919 210.984C26.3119 210.835 25.8639 210.616 25.4479 210.328C25.0319 210.029 24.7012 209.651 24.4559 209.192L25.7839 208.584C26.1252 209.011 26.4985 209.325 26.9039 209.528C27.3092 209.72 27.7305 209.816 28.1679 209.816C28.8612 209.816 29.4212 209.608 29.8479 209.192C30.2745 208.776 30.4879 208.221 30.4879 207.528C30.4879 206.856 30.2799 206.307 29.8639 205.88C29.4479 205.453 28.9039 205.24 28.2319 205.24C27.8479 205.24 27.4799 205.325 27.1279 205.496C26.7759 205.656 26.5039 205.859 26.3119 206.104L24.8879 205.784L25.4639 199.8H31.5279V201.24H25.6079L25.4639 199.848H27.0319L26.3439 205.88L25.2559 205.784C25.3945 205.56 25.5705 205.341 25.7839 205.128C26.0079 204.915 26.2639 204.723 26.5519 204.552C26.8505 204.371 27.1705 204.227 27.5119 204.12C27.8639 204.013 28.2265 203.965 28.5999 203.976C29.2719 203.976 29.8692 204.125 30.3919 204.424C30.9145 204.723 31.3252 205.139 31.6239 205.672C31.9332 206.195 32.0879 206.797 32.0879 207.48C32.0879 208.216 31.9225 208.861 31.5919 209.416C31.2612 209.971 30.8079 210.408 30.2319 210.728C29.6559 211.037 28.9892 211.192 28.2319 211.192Z" fill="#D4D4D8"/>
<rect x="0.5" y="180.1" width="48.7143" height="49.8" stroke="#D4D4D8"/>
<path d="M69.0486 211L69.0646 200.648L69.2086 199.8H70.6006L70.5846 211H69.0486ZM66.5846 202.856V201.432C66.8193 201.443 67.0913 201.368 67.4006 201.208C67.7206 201.048 68.0406 200.84 68.3606 200.584C68.6806 200.328 68.9633 200.061 69.2086 199.784L70.1846 200.84C69.8219 201.224 69.4433 201.571 69.0486 201.88C68.6539 202.189 68.2486 202.435 67.8326 202.616C67.4273 202.797 67.0113 202.877 66.5846 202.856ZM77.1128 211.192C76.3448 211.192 75.6995 211.048 75.1768 210.76C74.6542 210.472 74.2328 210.083 73.9128 209.592C73.6035 209.091 73.3795 208.515 73.2408 207.864C73.1022 207.213 73.0328 206.52 73.0328 205.784C73.0328 204.856 73.1288 204.013 73.3208 203.256C73.5128 202.499 73.7955 201.848 74.1688 201.304C74.5422 200.76 75.0008 200.344 75.5448 200.056C76.0888 199.757 76.7128 199.608 77.4168 199.608C77.9822 199.608 78.5422 199.699 79.0968 199.88C79.6515 200.051 80.1475 200.291 80.5848 200.6L79.7368 201.736C79.3955 201.501 79.0275 201.325 78.6328 201.208C78.2382 201.08 77.8702 201.016 77.5288 201.016C76.5155 201.016 75.7368 201.448 75.1928 202.312C74.6488 203.165 74.4035 204.483 74.4568 206.264L74.1368 205.992C74.3928 205.363 74.7928 204.861 75.3368 204.488C75.8915 204.104 76.5422 203.912 77.2888 203.912C78.0142 203.912 78.6542 204.072 79.2088 204.392C79.7635 204.712 80.1955 205.149 80.5048 205.704C80.8142 206.248 80.9688 206.877 80.9688 207.592C80.9688 208.285 80.8088 208.904 80.4888 209.448C80.1688 209.992 79.7155 210.419 79.1288 210.728C78.5528 211.037 77.8808 211.192 77.1128 211.192ZM77.1288 209.816C77.5662 209.816 77.9555 209.72 78.2968 209.528C78.6382 209.336 78.9048 209.069 79.0968 208.728C79.2995 208.376 79.4008 207.981 79.4008 207.544C79.4008 207.096 79.2995 206.701 79.0968 206.36C78.9048 206.008 78.6382 205.736 78.2968 205.544C77.9555 205.352 77.5662 205.256 77.1288 205.256C76.6808 205.256 76.2808 205.352 75.9288 205.544C75.5875 205.736 75.3155 206.008 75.1128 206.36C74.9208 206.701 74.8248 207.096 74.8248 207.544C74.8248 207.981 74.9208 208.376 75.1128 208.728C75.3155 209.069 75.5875 209.336 75.9288 209.528C76.2808 209.72 76.6808 209.816 77.1288 209.816Z" fill="#D4D4D8"/>
<rect x="49.2143" y="180.1" width="48.7143" height="49.8" stroke="#D4D4D8"/>
<path d="M117.982 211L117.998 200.648L118.142 199.8H119.534L119.518 211H117.982ZM115.518 202.856V201.432C115.752 201.443 116.024 201.368 116.334 201.208C116.654 201.048 116.974 200.84 117.294 200.584C117.614 200.328 117.896 200.061 118.142 199.784L119.118 200.84C118.755 201.224 118.376 201.571 117.982 201.88C117.587 202.189 117.182 202.435 116.766 202.616C116.36 202.797 115.944 202.877 115.518 202.856ZM122.638 211L127.918 200.904L129.47 201.064L124.382 211H122.638ZM121.902 201.24V199.8H129.47V201.064L128.11 201.24H121.902Z" fill="#52525B"/>
<rect x="97.9286" y="180.1" width="48.7143" height="49.8" stroke="#D4D4D8"/>
<path d="M166.118 211L166.134 200.648L166.278 199.8H167.67L167.654 211H166.118ZM163.654 202.856V201.432C163.888 201.443 164.16 201.368 164.47 201.208C164.79 201.048 165.11 200.84 165.43 200.584C165.75 200.328 166.032 200.061 166.278 199.784L167.254 200.84C166.891 201.224 166.512 201.571 166.118 201.88C165.723 202.189 165.318 202.435 164.902 202.616C164.496 202.797 164.08 202.877 163.654 202.856ZM174.31 211.192C173.478 211.192 172.758 211.064 172.15 210.808C171.542 210.541 171.067 210.179 170.726 209.72C170.395 209.251 170.23 208.707 170.23 208.088C170.23 207.437 170.395 206.867 170.726 206.376C171.067 205.875 171.542 205.485 172.15 205.208C172.758 204.931 173.478 204.797 174.31 204.808C175.153 204.797 175.878 204.931 176.486 205.208C177.094 205.485 177.563 205.875 177.894 206.376C178.235 206.867 178.406 207.437 178.406 208.088C178.406 208.707 178.235 209.251 177.894 209.72C177.563 210.179 177.094 210.541 176.486 210.808C175.878 211.064 175.153 211.192 174.31 211.192ZM174.31 209.832C175.046 209.832 175.643 209.656 176.102 209.304C176.571 208.941 176.806 208.477 176.806 207.912C176.806 207.325 176.571 206.851 176.102 206.488C175.643 206.125 175.046 205.944 174.31 205.944C173.83 205.944 173.403 206.024 173.03 206.184C172.657 206.344 172.363 206.579 172.15 206.888C171.947 207.187 171.846 207.528 171.846 207.912C171.846 208.285 171.947 208.621 172.15 208.92C172.363 209.208 172.657 209.432 173.03 209.592C173.403 209.752 173.83 209.832 174.31 209.832ZM174.31 205.608C173.574 205.608 172.929 205.485 172.374 205.24C171.819 204.984 171.387 204.637 171.078 204.2C170.779 203.752 170.63 203.235 170.63 202.648C170.63 202.051 170.779 201.523 171.078 201.064C171.387 200.605 171.819 200.248 172.374 199.992C172.929 199.736 173.574 199.608 174.31 199.608C175.057 199.608 175.707 199.736 176.262 199.992C176.817 200.248 177.243 200.605 177.542 201.064C177.851 201.523 178.006 202.051 178.006 202.648C178.006 203.235 177.851 203.752 177.542 204.2C177.243 204.637 176.817 204.984 176.262 205.24C175.707 205.485 175.057 205.608 174.31 205.608ZM174.31 204.552C174.939 204.552 175.451 204.392 175.846 204.072C176.251 203.741 176.454 203.32 176.454 202.808C176.454 202.253 176.251 201.805 175.846 201.464C175.451 201.112 174.939 200.936 174.31 200.936C173.691 200.936 173.185 201.112 172.79 201.464C172.395 201.805 172.198 202.253 172.198 202.808C172.198 203.32 172.395 203.741 172.79 204.072C173.185 204.392 173.691 204.552 174.31 204.552Z" fill="#52525B"/>
<rect x="146.643" y="180.1" width="48.7143" height="49.8" stroke="#D4D4D8"/>
<path d="M215.191 211L215.207 200.648L215.351 199.8H216.743L216.727 211H215.191ZM212.727 202.856V201.432C212.962 201.443 213.234 201.368 213.543 201.208C213.863 201.048 214.183 200.84 214.503 200.584C214.823 200.328 215.106 200.061 215.351 199.784L216.327 200.84C215.965 201.224 215.586 201.571 215.191 201.88C214.797 202.189 214.391 202.435 213.975 202.616C213.57 202.797 213.154 202.877 212.727 202.856ZM222.824 199.608C223.602 199.608 224.248 199.752 224.76 200.04C225.282 200.328 225.704 200.723 226.024 201.224C226.344 201.715 226.573 202.285 226.712 202.936C226.85 203.587 226.92 204.28 226.92 205.016C226.92 205.944 226.818 206.792 226.616 207.56C226.424 208.317 226.141 208.968 225.768 209.512C225.405 210.045 224.952 210.461 224.408 210.76C223.864 211.048 223.234 211.192 222.52 211.192C221.954 211.192 221.394 211.107 220.84 210.936C220.296 210.765 219.805 210.52 219.368 210.2L220.216 209.064C220.546 209.299 220.909 209.48 221.304 209.608C221.698 209.736 222.072 209.8 222.424 209.8C223.437 209.8 224.216 209.368 224.76 208.504C225.304 207.64 225.544 206.317 225.48 204.536L225.816 204.808C225.56 205.437 225.154 205.944 224.6 206.328C224.056 206.701 223.405 206.888 222.648 206.888C221.933 206.888 221.298 206.728 220.744 206.408C220.189 206.088 219.752 205.656 219.432 205.112C219.122 204.557 218.968 203.928 218.968 203.224C218.968 202.509 219.128 201.885 219.448 201.352C219.768 200.808 220.216 200.381 220.792 200.072C221.378 199.763 222.056 199.608 222.824 199.608ZM222.824 200.984C222.386 200.984 221.992 201.08 221.64 201.272C221.298 201.464 221.026 201.731 220.824 202.072C220.632 202.413 220.536 202.808 220.536 203.256C220.536 203.704 220.632 204.104 220.824 204.456C221.026 204.797 221.298 205.069 221.64 205.272C221.992 205.464 222.386 205.56 222.824 205.56C223.272 205.56 223.666 205.464 224.008 205.272C224.36 205.069 224.632 204.797 224.824 204.456C225.026 204.104 225.128 203.704 225.128 203.256C225.128 202.808 225.026 202.413 224.824 202.072C224.632 201.731 224.36 201.464 224.008 201.272C223.666 201.08 223.272 200.984 222.824 200.984Z" fill="#52525B"/>
<rect x="195.357" y="180.1" width="48.7143" height="49.8" stroke="#D4D4D8"/>
<rect x="244.071" y="180.1" width="48.7143" height="49.8" fill="#3770ED"/>
<path d="M261.22 210.296L259.668 209.736C259.668 209.405 259.743 209.064 259.892 208.712C260.052 208.349 260.276 207.992 260.564 207.64C260.863 207.288 261.215 206.963 261.62 206.664L263.78 205.064C264.036 204.883 264.266 204.675 264.468 204.44C264.682 204.195 264.847 203.944 264.964 203.688C265.092 203.421 265.156 203.16 265.156 202.904C265.156 202.563 265.071 202.253 264.9 201.976C264.73 201.688 264.49 201.464 264.18 201.304C263.871 201.133 263.503 201.048 263.076 201.048C262.671 201.048 262.314 201.128 262.004 201.288C261.706 201.437 261.455 201.64 261.252 201.896C261.05 202.152 260.906 202.424 260.82 202.712L259.204 202.408C259.322 201.917 259.551 201.459 259.892 201.032C260.234 200.605 260.671 200.264 261.204 200.008C261.738 199.741 262.34 199.608 263.012 199.608C263.78 199.608 264.442 199.752 264.996 200.04C265.562 200.317 265.999 200.707 266.308 201.208C266.618 201.699 266.772 202.264 266.772 202.904C266.772 203.523 266.602 204.093 266.26 204.616C265.93 205.139 265.45 205.645 264.82 206.136L262.82 207.64C262.511 207.864 262.234 208.109 261.988 208.376C261.743 208.643 261.551 208.936 261.412 209.256C261.284 209.565 261.22 209.912 261.22 210.296ZM259.668 211V209.736L260.852 209.592H266.916V211H259.668ZM272.94 211.192C272.076 211.192 271.308 210.947 270.636 210.456C269.964 209.955 269.436 209.272 269.052 208.408C268.678 207.533 268.492 206.531 268.492 205.4C268.492 204.269 268.678 203.272 269.052 202.408C269.436 201.533 269.958 200.851 270.62 200.36C271.292 199.859 272.065 199.608 272.94 199.608C273.814 199.608 274.582 199.859 275.244 200.36C275.916 200.851 276.444 201.533 276.828 202.408C277.212 203.272 277.404 204.269 277.404 205.4C277.404 206.531 277.212 207.533 276.828 208.408C276.454 209.272 275.932 209.955 275.26 210.456C274.588 210.947 273.814 211.192 272.94 211.192ZM272.94 209.752C273.505 209.752 274.006 209.565 274.444 209.192C274.892 208.819 275.238 208.307 275.484 207.656C275.729 207.005 275.852 206.253 275.852 205.4C275.852 204.547 275.729 203.795 275.484 203.144C275.238 202.483 274.892 201.965 274.444 201.592C274.006 201.219 273.505 201.032 272.94 201.032C272.374 201.032 271.873 201.219 271.436 201.592C270.998 201.965 270.657 202.483 270.412 203.144C270.166 203.795 270.044 204.547 270.044 205.4C270.044 206.253 270.166 207.011 270.412 207.672C270.657 208.323 270.998 208.835 271.436 209.208C271.873 209.571 272.374 209.752 272.94 209.752Z" fill="white"/>
<rect x="244.071" y="180.1" width="48.7143" height="49.8" stroke="#D4D4D8"/>
<rect x="292.786" y="180.1" width="48.7143" height="49.8" fill="#D7E3FB"/>
<path d="M311.747 210.296L310.195 209.736C310.195 209.405 310.27 209.064 310.419 208.712C310.579 208.349 310.803 207.992 311.091 207.64C311.39 207.288 311.742 206.963 312.147 206.664L314.307 205.064C314.563 204.883 314.792 204.675 314.995 204.44C315.208 204.195 315.374 203.944 315.491 203.688C315.619 203.421 315.683 203.16 315.683 202.904C315.683 202.563 315.598 202.253 315.427 201.976C315.256 201.688 315.016 201.464 314.707 201.304C314.398 201.133 314.03 201.048 313.603 201.048C313.198 201.048 312.84 201.128 312.531 201.288C312.232 201.437 311.982 201.64 311.779 201.896C311.576 202.152 311.432 202.424 311.347 202.712L309.731 202.408C309.848 201.917 310.078 201.459 310.419 201.032C310.76 200.605 311.198 200.264 311.731 200.008C312.264 199.741 312.867 199.608 313.539 199.608C314.307 199.608 314.968 199.752 315.523 200.04C316.088 200.317 316.526 200.707 316.835 201.208C317.144 201.699 317.299 202.264 317.299 202.904C317.299 203.523 317.128 204.093 316.787 204.616C316.456 205.139 315.976 205.645 315.347 206.136L313.347 207.64C313.038 207.864 312.76 208.109 312.515 208.376C312.27 208.643 312.078 208.936 311.939 209.256C311.811 209.565 311.747 209.912 311.747 210.296ZM310.195 211V209.736L311.379 209.592H317.443V211H310.195ZM321.69 211L321.706 200.648L321.85 199.8H323.242L323.226 211H321.69ZM319.226 202.856V201.432C319.461 201.443 319.733 201.368 320.042 201.208C320.362 201.048 320.682 200.84 321.002 200.584C321.322 200.328 321.605 200.061 321.85 199.784L322.826 200.84C322.464 201.224 322.085 201.571 321.69 201.88C321.296 202.189 320.89 202.435 320.474 202.616C320.069 202.797 319.653 202.877 319.226 202.856Z" fill="#2055C9"/>
<rect x="292.786" y="180.1" width="48.7143" height="49.8" stroke="#D4D4D8"/>
<rect x="0.5" y="229.9" width="48.7143" height="49.8" fill="#D7E3FB"/>
<path d="M18.2739 260.096L16.7219 259.536C16.7219 259.205 16.7965 258.864 16.9459 258.512C17.1059 258.149 17.3299 257.792 17.6179 257.44C17.9165 257.088 18.2685 256.763 18.6739 256.464L20.8339 254.864C21.0899 254.683 21.3192 254.475 21.5219 254.24C21.7352 253.995 21.9005 253.744 22.0179 253.488C22.1459 253.221 22.2099 252.96 22.2099 252.704C22.2099 252.363 22.1245 252.053 21.9539 251.776C21.7832 251.488 21.5432 251.264 21.2339 251.104C20.9245 250.933 20.5565 250.848 20.1299 250.848C19.7245 250.848 19.3672 250.928 19.0579 251.088C18.7592 251.237 18.5085 251.44 18.3059 251.696C18.1032 251.952 17.9592 252.224 17.8739 252.512L16.2579 252.208C16.3752 251.717 16.6045 251.259 16.9459 250.832C17.2872 250.405 17.7245 250.064 18.2579 249.808C18.7912 249.541 19.3939 249.408 20.0659 249.408C20.8339 249.408 21.4952 249.552 22.0499 249.84C22.6152 250.117 23.0525 250.507 23.3619 251.008C23.6712 251.499 23.8259 252.064 23.8259 252.704C23.8259 253.323 23.6552 253.893 23.3139 254.416C22.9832 254.939 22.5032 255.445 21.8739 255.936L19.8739 257.44C19.5645 257.664 19.2872 257.909 19.0419 258.176C18.7965 258.443 18.6045 258.736 18.4659 259.056C18.3379 259.365 18.2739 259.712 18.2739 260.096ZM16.7219 260.8V259.536L17.9059 259.392H23.9699V260.8H16.7219ZM27.3051 260.096L25.7531 259.536C25.7531 259.205 25.8278 258.864 25.9771 258.512C26.1371 258.149 26.3611 257.792 26.6491 257.44C26.9478 257.088 27.2998 256.763 27.7051 256.464L29.8651 254.864C30.1211 254.683 30.3505 254.475 30.5531 254.24C30.7665 253.995 30.9318 253.744 31.0491 253.488C31.1771 253.221 31.2411 252.96 31.2411 252.704C31.2411 252.363 31.1558 252.053 30.9851 251.776C30.8145 251.488 30.5745 251.264 30.2651 251.104C29.9558 250.933 29.5878 250.848 29.1611 250.848C28.7558 250.848 28.3985 250.928 28.0891 251.088C27.7905 251.237 27.5398 251.44 27.3371 251.696C27.1345 251.952 26.9905 252.224 26.9051 252.512L25.2891 252.208C25.4065 251.717 25.6358 251.259 25.9771 250.832C26.3185 250.405 26.7558 250.064 27.2891 249.808C27.8225 249.541 28.4251 249.408 29.0971 249.408C29.8651 249.408 30.5265 249.552 31.0811 249.84C31.6465 250.117 32.0838 250.507 32.3931 251.008C32.7025 251.499 32.8571 252.064 32.8571 252.704C32.8571 253.323 32.6865 253.893 32.3451 254.416C32.0145 254.939 31.5345 255.445 30.9051 255.936L28.9051 257.44C28.5958 257.664 28.3185 257.909 28.0731 258.176C27.8278 258.443 27.6358 258.736 27.4971 259.056C27.3691 259.365 27.3051 259.712 27.3051 260.096ZM25.7531 260.8V259.536L26.9371 259.392H33.0011V260.8H25.7531Z" fill="#2055C9"/>
<rect x="0.5" y="229.9" width="48.7143" height="49.8" stroke="#D4D4D8"/>
<rect x="49.2143" y="229.9" width="48.7143" height="49.8" fill="#3770ED"/>
<path d="M67.1288 260.096L65.5768 259.536C65.5768 259.205 65.6515 258.864 65.8008 258.512C65.9608 258.149 66.1848 257.792 66.4728 257.44C66.7715 257.088 67.1235 256.763 67.5288 256.464L69.6888 254.864C69.9448 254.683 70.1741 254.475 70.3768 254.24C70.5901 253.995 70.7555 253.744 70.8728 253.488C71.0008 253.221 71.0648 252.96 71.0648 252.704C71.0648 252.363 70.9795 252.053 70.8088 251.776C70.6381 251.488 70.3981 251.264 70.0888 251.104C69.7795 250.933 69.4115 250.848 68.9848 250.848C68.5795 250.848 68.2221 250.928 67.9128 251.088C67.6141 251.237 67.3635 251.44 67.1608 251.696C66.9581 251.952 66.8141 252.224 66.7288 252.512L65.1128 252.208C65.2301 251.717 65.4595 251.259 65.8008 250.832C66.1421 250.405 66.5795 250.064 67.1128 249.808C67.6461 249.541 68.2488 249.408 68.9208 249.408C69.6888 249.408 70.3501 249.552 70.9048 249.84C71.4701 250.117 71.9075 250.507 72.2168 251.008C72.5261 251.499 72.6808 252.064 72.6808 252.704C72.6808 253.323 72.5101 253.893 72.1688 254.416C71.8381 254.939 71.3581 255.445 70.7288 255.936L68.7288 257.44C68.4195 257.664 68.1421 257.909 67.8968 258.176C67.6515 258.443 67.4595 258.736 67.3208 259.056C67.1928 259.365 67.1288 259.712 67.1288 260.096ZM65.5768 260.8V259.536L66.7608 259.392H72.8248V260.8H65.5768ZM78.064 260.992C77.488 260.992 76.9654 260.907 76.496 260.736C76.0267 260.565 75.632 260.331 75.312 260.032C74.992 259.733 74.7467 259.408 74.576 259.056L75.936 258.432C76.0427 258.581 76.176 258.752 76.336 258.944C76.496 259.125 76.7094 259.28 76.976 259.408C77.2427 259.536 77.5734 259.6 77.968 259.6C78.64 259.6 79.1734 259.408 79.568 259.024C79.9734 258.64 80.176 258.155 80.176 257.568C80.176 257.131 80.0587 256.763 79.824 256.464C79.5894 256.155 79.2427 255.92 78.784 255.76C78.336 255.6 77.7867 255.52 77.136 255.52H76.736V254.336H77.104C77.7654 254.336 78.3734 254.411 78.928 254.56C79.4934 254.709 79.9894 254.933 80.416 255.232C80.8427 255.52 81.1734 255.872 81.408 256.288C81.6427 256.704 81.76 257.179 81.76 257.712C81.76 258.373 81.5894 258.955 81.248 259.456C80.9174 259.947 80.4694 260.325 79.904 260.592C79.3494 260.859 78.736 260.992 78.064 260.992ZM76.736 255.328V254.192H77.136C78.0107 254.192 78.6934 254.043 79.184 253.744C79.6747 253.445 79.92 253.024 79.92 252.48C79.92 252.171 79.8347 251.893 79.664 251.648C79.504 251.392 79.2747 251.189 78.976 251.04C78.688 250.88 78.3414 250.8 77.936 250.8C77.68 250.8 77.4294 250.843 77.184 250.928C76.9494 251.003 76.7307 251.12 76.528 251.28C76.3254 251.429 76.1494 251.627 76 251.872L74.688 251.28C74.8694 250.885 75.1254 250.549 75.456 250.272C75.7867 249.995 76.1707 249.781 76.608 249.632C77.0454 249.483 77.5094 249.408 78 249.408C78.672 249.408 79.2694 249.536 79.792 249.792C80.3147 250.048 80.7254 250.4 81.024 250.848C81.3334 251.296 81.488 251.803 81.488 252.368C81.488 252.848 81.3707 253.275 81.136 253.648C80.912 254.011 80.5974 254.32 80.192 254.576C79.7867 254.821 79.3174 255.008 78.784 255.136C78.2614 255.264 77.696 255.328 77.088 255.328H76.736Z" fill="white"/>
<rect x="49.2143" y="229.9" width="48.7143" height="49.8" stroke="#D4D4D8"/>
<path d="M115.226 260.096L113.674 259.536C113.674 259.205 113.749 258.864 113.898 258.512C114.058 258.149 114.282 257.792 114.57 257.44C114.869 257.088 115.221 256.763 115.626 256.464L117.786 254.864C118.042 254.683 118.271 254.475 118.474 254.24C118.687 253.995 118.853 253.744 118.97 253.488C119.098 253.221 119.162 252.96 119.162 252.704C119.162 252.363 119.077 252.053 118.906 251.776C118.735 251.488 118.495 251.264 118.186 251.104C117.877 250.933 117.509 250.848 117.082 250.848C116.677 250.848 116.319 250.928 116.01 251.088C115.711 251.237 115.461 251.44 115.258 251.696C115.055 251.952 114.911 252.224 114.826 252.512L113.21 252.208C113.327 251.717 113.557 251.259 113.898 250.832C114.239 250.405 114.677 250.064 115.21 249.808C115.743 249.541 116.346 249.408 117.018 249.408C117.786 249.408 118.447 249.552 119.002 249.84C119.567 250.117 120.005 250.507 120.314 251.008C120.623 251.499 120.778 252.064 120.778 252.704C120.778 253.323 120.607 253.893 120.266 254.416C119.935 254.939 119.455 255.445 118.826 255.936L116.826 257.44C116.517 257.664 116.239 257.909 115.994 258.176C115.749 258.443 115.557 258.736 115.418 259.056C115.29 259.365 115.226 259.712 115.226 260.096ZM113.674 260.8V259.536L114.858 259.392H120.922V260.8H113.674ZM123.585 257.68L122.433 256.992L127.489 249.6L128.481 250.496L123.585 257.68ZM122.433 258.224V256.992L123.393 256.832H131.313V258.224H122.433ZM127.601 260.8V250.56L127.489 249.6H129.121V260.8H127.601Z" fill="#52525B"/>
<rect x="97.9286" y="229.9" width="48.7143" height="49.8" stroke="#D4D4D8"/>
<path d="M164.323 260.096L162.771 259.536C162.771 259.205 162.846 258.864 162.995 258.512C163.155 258.149 163.379 257.792 163.667 257.44C163.966 257.088 164.318 256.763 164.723 256.464L166.883 254.864C167.139 254.683 167.368 254.475 167.571 254.24C167.784 253.995 167.95 253.744 168.067 253.488C168.195 253.221 168.259 252.96 168.259 252.704C168.259 252.363 168.174 252.053 168.003 251.776C167.832 251.488 167.592 251.264 167.283 251.104C166.974 250.933 166.606 250.848 166.179 250.848C165.774 250.848 165.416 250.928 165.107 251.088C164.808 251.237 164.558 251.44 164.355 251.696C164.152 251.952 164.008 252.224 163.923 252.512L162.307 252.208C162.424 251.717 162.654 251.259 162.995 250.832C163.336 250.405 163.774 250.064 164.307 249.808C164.84 249.541 165.443 249.408 166.115 249.408C166.883 249.408 167.544 249.552 168.099 249.84C168.664 250.117 169.102 250.507 169.411 251.008C169.72 251.499 169.875 252.064 169.875 252.704C169.875 253.323 169.704 253.893 169.363 254.416C169.032 254.939 168.552 255.445 167.923 255.936L165.923 257.44C165.614 257.664 165.336 257.909 165.091 258.176C164.846 258.443 164.654 258.736 164.515 259.056C164.387 259.365 164.323 259.712 164.323 260.096ZM162.771 260.8V259.536L163.955 259.392H170.019V260.8H162.771ZM175.562 260.992C175.093 260.992 174.613 260.923 174.122 260.784C173.642 260.635 173.194 260.416 172.778 260.128C172.362 259.829 172.032 259.451 171.786 258.992L173.114 258.384C173.456 258.811 173.829 259.125 174.234 259.328C174.64 259.52 175.061 259.616 175.498 259.616C176.192 259.616 176.752 259.408 177.178 258.992C177.605 258.576 177.818 258.021 177.818 257.328C177.818 256.656 177.61 256.107 177.194 255.68C176.778 255.253 176.234 255.04 175.562 255.04C175.178 255.04 174.81 255.125 174.458 255.296C174.106 255.456 173.834 255.659 173.642 255.904L172.218 255.584L172.794 249.6H178.858V251.04H172.938L172.794 249.648H174.362L173.674 255.68L172.586 255.584C172.725 255.36 172.901 255.141 173.114 254.928C173.338 254.715 173.594 254.523 173.882 254.352C174.181 254.171 174.501 254.027 174.842 253.92C175.194 253.813 175.557 253.765 175.93 253.776C176.602 253.776 177.2 253.925 177.722 254.224C178.245 254.523 178.656 254.939 178.954 255.472C179.264 255.995 179.418 256.597 179.418 257.28C179.418 258.016 179.253 258.661 178.922 259.216C178.592 259.771 178.138 260.208 177.562 260.528C176.986 260.837 176.32 260.992 175.562 260.992Z" fill="#52525B"/>
<rect x="146.643" y="229.9" width="48.7143" height="49.8" stroke="#D4D4D8"/>
<path d="M213.092 260.096L211.54 259.536C211.54 259.205 211.615 258.864 211.764 258.512C211.924 258.149 212.148 257.792 212.436 257.44C212.735 257.088 213.087 256.763 213.492 256.464L215.652 254.864C215.908 254.683 216.137 254.475 216.34 254.24C216.553 253.995 216.719 253.744 216.836 253.488C216.964 253.221 217.028 252.96 217.028 252.704C217.028 252.363 216.943 252.053 216.772 251.776C216.601 251.488 216.361 251.264 216.052 251.104C215.743 250.933 215.375 250.848 214.948 250.848C214.543 250.848 214.185 250.928 213.876 251.088C213.577 251.237 213.327 251.44 213.124 251.696C212.921 251.952 212.777 252.224 212.692 252.512L211.076 252.208C211.193 251.717 211.423 251.259 211.764 250.832C212.105 250.405 212.543 250.064 213.076 249.808C213.609 249.541 214.212 249.408 214.884 249.408C215.652 249.408 216.313 249.552 216.868 249.84C217.433 250.117 217.871 250.507 218.18 251.008C218.489 251.499 218.644 252.064 218.644 252.704C218.644 253.323 218.473 253.893 218.132 254.416C217.801 254.939 217.321 255.445 216.692 255.936L214.692 257.44C214.383 257.664 214.105 257.909 213.86 258.176C213.615 258.443 213.423 258.736 213.284 259.056C213.156 259.365 213.092 259.712 213.092 260.096ZM211.54 260.8V259.536L212.724 259.392H218.788V260.8H211.54ZM224.443 260.992C223.675 260.992 223.03 260.848 222.507 260.56C221.985 260.272 221.563 259.883 221.243 259.392C220.934 258.891 220.71 258.315 220.571 257.664C220.433 257.013 220.363 256.32 220.363 255.584C220.363 254.656 220.459 253.813 220.651 253.056C220.843 252.299 221.126 251.648 221.499 251.104C221.873 250.56 222.331 250.144 222.875 249.856C223.419 249.557 224.043 249.408 224.747 249.408C225.313 249.408 225.873 249.499 226.427 249.68C226.982 249.851 227.478 250.091 227.915 250.4L227.067 251.536C226.726 251.301 226.358 251.125 225.963 251.008C225.569 250.88 225.201 250.816 224.859 250.816C223.846 250.816 223.067 251.248 222.523 252.112C221.979 252.965 221.734 254.283 221.787 256.064L221.467 255.792C221.723 255.163 222.123 254.661 222.667 254.288C223.222 253.904 223.873 253.712 224.619 253.712C225.345 253.712 225.985 253.872 226.539 254.192C227.094 254.512 227.526 254.949 227.835 255.504C228.145 256.048 228.299 256.677 228.299 257.392C228.299 258.085 228.139 258.704 227.819 259.248C227.499 259.792 227.046 260.219 226.459 260.528C225.883 260.837 225.211 260.992 224.443 260.992ZM224.459 259.616C224.897 259.616 225.286 259.52 225.627 259.328C225.969 259.136 226.235 258.869 226.427 258.528C226.63 258.176 226.731 257.781 226.731 257.344C226.731 256.896 226.63 256.501 226.427 256.16C226.235 255.808 225.969 255.536 225.627 255.344C225.286 255.152 224.897 255.056 224.459 255.056C224.011 255.056 223.611 255.152 223.259 255.344C222.918 255.536 222.646 255.808 222.443 256.16C222.251 256.501 222.155 256.896 222.155 257.344C222.155 257.781 222.251 258.176 222.443 258.528C222.646 258.869 222.918 259.136 223.259 259.328C223.611 259.52 224.011 259.616 224.459 259.616Z" fill="#D4D4D8"/>
<rect x="195.357" y="229.9" width="48.7143" height="49.8" stroke="#D4D4D8"/>
<path d="M262.025 260.096L260.473 259.536C260.473 259.205 260.548 258.864 260.697 258.512C260.857 258.149 261.081 257.792 261.369 257.44C261.668 257.088 262.02 256.763 262.425 256.464L264.585 254.864C264.841 254.683 265.07 254.475 265.273 254.24C265.486 253.995 265.652 253.744 265.769 253.488C265.897 253.221 265.961 252.96 265.961 252.704C265.961 252.363 265.876 252.053 265.705 251.776C265.534 251.488 265.294 251.264 264.985 251.104C264.676 250.933 264.308 250.848 263.881 250.848C263.476 250.848 263.118 250.928 262.809 251.088C262.51 251.237 262.26 251.44 262.057 251.696C261.854 251.952 261.71 252.224 261.625 252.512L260.009 252.208C260.126 251.717 260.356 251.259 260.697 250.832C261.038 250.405 261.476 250.064 262.009 249.808C262.542 249.541 263.145 249.408 263.817 249.408C264.585 249.408 265.246 249.552 265.801 249.84C266.366 250.117 266.804 250.507 267.113 251.008C267.422 251.499 267.577 252.064 267.577 252.704C267.577 253.323 267.406 253.893 267.065 254.416C266.734 254.939 266.254 255.445 265.625 255.936L263.625 257.44C263.316 257.664 263.038 257.909 262.793 258.176C262.548 258.443 262.356 258.736 262.217 259.056C262.089 259.365 262.025 259.712 262.025 260.096ZM260.473 260.8V259.536L261.657 259.392H267.721V260.8H260.473ZM269.968 260.8L275.248 250.704L276.8 250.864L271.712 260.8H269.968ZM269.232 251.04V249.6H276.8V250.864L275.44 251.04H269.232Z" fill="#52525B"/>
<rect x="244.071" y="229.9" width="48.7143" height="49.8" stroke="#D4D4D8"/>
<path d="M310.161 260.096L308.609 259.536C308.609 259.205 308.684 258.864 308.833 258.512C308.993 258.149 309.217 257.792 309.505 257.44C309.804 257.088 310.156 256.763 310.561 256.464L312.721 254.864C312.977 254.683 313.207 254.475 313.409 254.24C313.623 253.995 313.788 253.744 313.905 253.488C314.033 253.221 314.097 252.96 314.097 252.704C314.097 252.363 314.012 252.053 313.841 251.776C313.671 251.488 313.431 251.264 313.121 251.104C312.812 250.933 312.444 250.848 312.017 250.848C311.612 250.848 311.255 250.928 310.945 251.088C310.647 251.237 310.396 251.44 310.193 251.696C309.991 251.952 309.847 252.224 309.761 252.512L308.145 252.208C308.263 251.717 308.492 251.259 308.833 250.832C309.175 250.405 309.612 250.064 310.145 249.808C310.679 249.541 311.281 249.408 311.953 249.408C312.721 249.408 313.383 249.552 313.937 249.84C314.503 250.117 314.94 250.507 315.249 251.008C315.559 251.499 315.713 252.064 315.713 252.704C315.713 253.323 315.543 253.893 315.201 254.416C314.871 254.939 314.391 255.445 313.761 255.936L311.761 257.44C311.452 257.664 311.175 257.909 310.929 258.176C310.684 258.443 310.492 258.736 310.353 259.056C310.225 259.365 310.161 259.712 310.161 260.096ZM308.609 260.8V259.536L309.793 259.392H315.857V260.8H308.609ZM321.64 260.992C320.808 260.992 320.088 260.864 319.48 260.608C318.872 260.341 318.398 259.979 318.056 259.52C317.726 259.051 317.56 258.507 317.56 257.888C317.56 257.237 317.726 256.667 318.056 256.176C318.398 255.675 318.872 255.285 319.48 255.008C320.088 254.731 320.808 254.597 321.64 254.608C322.483 254.597 323.208 254.731 323.816 255.008C324.424 255.285 324.894 255.675 325.224 256.176C325.566 256.667 325.736 257.237 325.736 257.888C325.736 258.507 325.566 259.051 325.224 259.52C324.894 259.979 324.424 260.341 323.816 260.608C323.208 260.864 322.483 260.992 321.64 260.992ZM321.64 259.632C322.376 259.632 322.974 259.456 323.432 259.104C323.902 258.741 324.136 258.277 324.136 257.712C324.136 257.125 323.902 256.651 323.432 256.288C322.974 255.925 322.376 255.744 321.64 255.744C321.16 255.744 320.734 255.824 320.36 255.984C319.987 256.144 319.694 256.379 319.48 256.688C319.278 256.987 319.176 257.328 319.176 257.712C319.176 258.085 319.278 258.421 319.48 258.72C319.694 259.008 319.987 259.232 320.36 259.392C320.734 259.552 321.16 259.632 321.64 259.632ZM321.64 255.408C320.904 255.408 320.259 255.285 319.704 255.04C319.15 254.784 318.718 254.437 318.408 254C318.11 253.552 317.96 253.035 317.96 252.448C317.96 251.851 318.11 251.323 318.408 250.864C318.718 250.405 319.15 250.048 319.704 249.792C320.259 249.536 320.904 249.408 321.64 249.408C322.387 249.408 323.038 249.536 323.592 249.792C324.147 250.048 324.574 250.405 324.872 250.864C325.182 251.323 325.336 251.851 325.336 252.448C325.336 253.035 325.182 253.552 324.872 254C324.574 254.437 324.147 254.784 323.592 255.04C323.038 255.285 322.387 255.408 321.64 255.408ZM321.64 254.352C322.27 254.352 322.782 254.192 323.176 253.872C323.582 253.541 323.784 253.12 323.784 252.608C323.784 252.053 323.582 251.605 323.176 251.264C322.782 250.912 322.27 250.736 321.64 250.736C321.022 250.736 320.515 250.912 320.12 251.264C319.726 251.605 319.528 252.053 319.528 252.608C319.528 253.12 319.726 253.541 320.12 253.872C320.515 254.192 321.022 254.352 321.64 254.352Z" fill="#52525B"/>
<rect x="292.786" y="229.9" width="48.7143" height="49.8" stroke="#D4D4D8"/>
<path d="M18.2348 309.896L16.6828 309.336C16.6828 309.005 16.7575 308.664 16.9068 308.312C17.0668 307.949 17.2908 307.592 17.5788 307.24C17.8775 306.888 18.2295 306.563 18.6348 306.264L20.7948 304.664C21.0508 304.483 21.2801 304.275 21.4828 304.04C21.6961 303.795 21.8615 303.544 21.9788 303.288C22.1068 303.021 22.1708 302.76 22.1708 302.504C22.1708 302.163 22.0855 301.853 21.9148 301.576C21.7441 301.288 21.5041 301.064 21.1948 300.904C20.8855 300.733 20.5175 300.648 20.0908 300.648C19.6855 300.648 19.3281 300.728 19.0188 300.888C18.7201 301.037 18.4695 301.24 18.2668 301.496C18.0641 301.752 17.9201 302.024 17.8348 302.312L16.2188 302.008C16.3361 301.517 16.5655 301.059 16.9068 300.632C17.2481 300.205 17.6855 299.864 18.2188 299.608C18.7521 299.341 19.3548 299.208 20.0268 299.208C20.7948 299.208 21.4561 299.352 22.0108 299.64C22.5761 299.917 23.0135 300.307 23.3228 300.808C23.6321 301.299 23.7868 301.864 23.7868 302.504C23.7868 303.123 23.6161 303.693 23.2748 304.216C22.9441 304.739 22.4641 305.245 21.8348 305.736L19.8348 307.24C19.5255 307.464 19.2481 307.709 19.0028 307.976C18.7575 308.243 18.5655 308.536 18.4268 308.856C18.2988 309.165 18.2348 309.512 18.2348 309.896ZM16.6828 310.6V309.336L17.8668 309.192H23.9308V310.6H16.6828ZM29.1541 299.208C29.9327 299.208 30.5781 299.352 31.0901 299.64C31.6127 299.928 32.0341 300.323 32.3541 300.824C32.6741 301.315 32.9034 301.885 33.0421 302.536C33.1807 303.187 33.2501 303.88 33.2501 304.616C33.2501 305.544 33.1487 306.392 32.9461 307.16C32.7541 307.917 32.4714 308.568 32.0981 309.112C31.7354 309.645 31.2821 310.061 30.7381 310.36C30.1941 310.648 29.5647 310.792 28.8501 310.792C28.2847 310.792 27.7247 310.707 27.1701 310.536C26.6261 310.365 26.1354 310.12 25.6981 309.8L26.5461 308.664C26.8767 308.899 27.2394 309.08 27.6341 309.208C28.0287 309.336 28.4021 309.4 28.7541 309.4C29.7674 309.4 30.5461 308.968 31.0901 308.104C31.6341 307.24 31.8741 305.917 31.8101 304.136L32.1461 304.408C31.8901 305.037 31.4847 305.544 30.9301 305.928C30.3861 306.301 29.7354 306.488 28.9781 306.488C28.2634 306.488 27.6287 306.328 27.0741 306.008C26.5194 305.688 26.0821 305.256 25.7621 304.712C25.4527 304.157 25.2981 303.528 25.2981 302.824C25.2981 302.109 25.4581 301.485 25.7781 300.952C26.0981 300.408 26.5461 299.981 27.1221 299.672C27.7087 299.363 28.3861 299.208 29.1541 299.208ZM29.1541 300.584C28.7167 300.584 28.3221 300.68 27.9701 300.872C27.6287 301.064 27.3567 301.331 27.1541 301.672C26.9621 302.013 26.8661 302.408 26.8661 302.856C26.8661 303.304 26.9621 303.704 27.1541 304.056C27.3567 304.397 27.6287 304.669 27.9701 304.872C28.3221 305.064 28.7167 305.16 29.1541 305.16C29.6021 305.16 29.9967 305.064 30.3381 304.872C30.6901 304.669 30.9621 304.397 31.1541 304.056C31.3567 303.704 31.4581 303.304 31.4581 302.856C31.4581 302.408 31.3567 302.013 31.1541 301.672C30.9621 301.331 30.6901 301.064 30.3381 300.872C29.9967 300.68 29.6021 300.584 29.1541 300.584Z" fill="#52525B"/>
<rect x="0.5" y="279.7" width="48.7143" height="49.8" stroke="#D4D4D8"/>
<path d="M68.4078 310.792C67.8318 310.792 67.3091 310.707 66.8398 310.536C66.3705 310.365 65.9758 310.131 65.6558 309.832C65.3358 309.533 65.0905 309.208 64.9198 308.856L66.2798 308.232C66.3865 308.381 66.5198 308.552 66.6798 308.744C66.8398 308.925 67.0531 309.08 67.3198 309.208C67.5865 309.336 67.9171 309.4 68.3118 309.4C68.9838 309.4 69.5171 309.208 69.9118 308.824C70.3171 308.44 70.5198 307.955 70.5198 307.368C70.5198 306.931 70.4025 306.563 70.1678 306.264C69.9331 305.955 69.5865 305.72 69.1278 305.56C68.6798 305.4 68.1305 305.32 67.4798 305.32H67.0798V304.136H67.4478C68.1091 304.136 68.7171 304.211 69.2718 304.36C69.8371 304.509 70.3331 304.733 70.7598 305.032C71.1865 305.32 71.5171 305.672 71.7518 306.088C71.9865 306.504 72.1038 306.979 72.1038 307.512C72.1038 308.173 71.9331 308.755 71.5918 309.256C71.2611 309.747 70.8131 310.125 70.2478 310.392C69.6931 310.659 69.0798 310.792 68.4078 310.792ZM67.0798 305.128V303.992H67.4798C68.3545 303.992 69.0371 303.843 69.5278 303.544C70.0185 303.245 70.2638 302.824 70.2638 302.28C70.2638 301.971 70.1785 301.693 70.0078 301.448C69.8478 301.192 69.6185 300.989 69.3198 300.84C69.0318 300.68 68.6851 300.6 68.2798 300.6C68.0238 300.6 67.7731 300.643 67.5278 300.728C67.2931 300.803 67.0745 300.92 66.8718 301.08C66.6691 301.229 66.4931 301.427 66.3438 301.672L65.0318 301.08C65.2131 300.685 65.4691 300.349 65.7998 300.072C66.1305 299.795 66.5145 299.581 66.9518 299.432C67.3891 299.283 67.8531 299.208 68.3438 299.208C69.0158 299.208 69.6131 299.336 70.1358 299.592C70.6585 299.848 71.0691 300.2 71.3678 300.648C71.6771 301.096 71.8318 301.603 71.8318 302.168C71.8318 302.648 71.7145 303.075 71.4798 303.448C71.2558 303.811 70.9411 304.12 70.5358 304.376C70.1305 304.621 69.6611 304.808 69.1278 304.936C68.6051 305.064 68.0398 305.128 67.4318 305.128H67.0798ZM77.9418 310.792C77.0778 310.792 76.3098 310.547 75.6378 310.056C74.9658 309.555 74.4378 308.872 74.0538 308.008C73.6805 307.133 73.4938 306.131 73.4938 305C73.4938 303.869 73.6805 302.872 74.0538 302.008C74.4378 301.133 74.9605 300.451 75.6218 299.96C76.2938 299.459 77.0671 299.208 77.9418 299.208C78.8165 299.208 79.5845 299.459 80.2458 299.96C80.9178 300.451 81.4458 301.133 81.8298 302.008C82.2138 302.872 82.4058 303.869 82.4058 305C82.4058 306.131 82.2138 307.133 81.8298 308.008C81.4565 308.872 80.9338 309.555 80.2618 310.056C79.5898 310.547 78.8165 310.792 77.9418 310.792ZM77.9418 309.352C78.5071 309.352 79.0085 309.165 79.4458 308.792C79.8938 308.419 80.2405 307.907 80.4858 307.256C80.7311 306.605 80.8538 305.853 80.8538 305C80.8538 304.147 80.7311 303.395 80.4858 302.744C80.2405 302.083 79.8938 301.565 79.4458 301.192C79.0085 300.819 78.5071 300.632 77.9418 300.632C77.3765 300.632 76.8751 300.819 76.4378 301.192C76.0005 301.565 75.6591 302.083 75.4138 302.744C75.1685 303.395 75.0458 304.147 75.0458 305C75.0458 305.853 75.1685 306.611 75.4138 307.272C75.6591 307.923 76.0005 308.435 76.4378 308.808C76.8751 309.171 77.3765 309.352 77.9418 309.352Z" fill="#52525B"/>
<rect x="49.2143" y="279.7" width="48.7143" height="49.8" stroke="#D4D4D8"/>
<path d="M118.935 310.792C118.359 310.792 117.836 310.707 117.367 310.536C116.897 310.365 116.503 310.131 116.183 309.832C115.863 309.533 115.617 309.208 115.447 308.856L116.807 308.232C116.913 308.381 117.047 308.552 117.207 308.744C117.367 308.925 117.58 309.08 117.847 309.208C118.113 309.336 118.444 309.4 118.839 309.4C119.511 309.4 120.044 309.208 120.439 308.824C120.844 308.44 121.047 307.955 121.047 307.368C121.047 306.931 120.929 306.563 120.695 306.264C120.46 305.955 120.113 305.72 119.655 305.56C119.207 305.4 118.657 305.32 118.007 305.32H117.607V304.136H117.975C118.636 304.136 119.244 304.211 119.799 304.36C120.364 304.509 120.86 304.733 121.287 305.032C121.713 305.32 122.044 305.672 122.279 306.088C122.513 306.504 122.631 306.979 122.631 307.512C122.631 308.173 122.46 308.755 122.119 309.256C121.788 309.747 121.34 310.125 120.775 310.392C120.22 310.659 119.607 310.792 118.935 310.792ZM117.607 305.128V303.992H118.007C118.881 303.992 119.564 303.843 120.055 303.544C120.545 303.245 120.791 302.824 120.791 302.28C120.791 301.971 120.705 301.693 120.535 301.448C120.375 301.192 120.145 300.989 119.847 300.84C119.559 300.68 119.212 300.6 118.807 300.6C118.551 300.6 118.3 300.643 118.055 300.728C117.82 300.803 117.601 300.92 117.399 301.08C117.196 301.229 117.02 301.427 116.871 301.672L115.559 301.08C115.74 300.685 115.996 300.349 116.327 300.072C116.657 299.795 117.041 299.581 117.479 299.432C117.916 299.283 118.38 299.208 118.871 299.208C119.543 299.208 120.14 299.336 120.663 299.592C121.185 299.848 121.596 300.2 121.895 300.648C122.204 301.096 122.359 301.603 122.359 302.168C122.359 302.648 122.241 303.075 122.007 303.448C121.783 303.811 121.468 304.12 121.063 304.376C120.657 304.621 120.188 304.808 119.655 304.936C119.132 305.064 118.567 305.128 117.959 305.128H117.607ZM126.693 310.6L126.709 300.248L126.853 299.4H128.245L128.229 310.6H126.693ZM124.229 302.456V301.032C124.463 301.043 124.735 300.968 125.045 300.808C125.365 300.648 125.685 300.44 126.005 300.184C126.325 299.928 126.607 299.661 126.853 299.384L127.829 300.44C127.466 300.824 127.087 301.171 126.693 301.48C126.298 301.789 125.893 302.035 125.477 302.216C125.071 302.397 124.655 302.477 124.229 302.456Z" fill="#52525B"/>
<rect x="97.9286" y="279.7" width="48.7143" height="49.8" stroke="#D4D4D8"/>
<path d="M171.032 310.6L171.048 300.248L171.192 299.4H172.584L172.568 310.6H171.032ZM168.568 302.456V301.032C168.802 301.043 169.074 300.968 169.384 300.808C169.704 300.648 170.024 300.44 170.344 300.184C170.664 299.928 170.946 299.661 171.192 299.384L172.168 300.44C171.805 300.824 171.426 301.171 171.032 301.48C170.637 301.789 170.232 302.035 169.816 302.216C169.41 302.397 168.994 302.477 168.568 302.456Z" fill="#D4D4D8"/>
<rect x="146.643" y="279.7" width="48.7143" height="49.8" stroke="#D4D4D8"/>
<path d="M217.647 309.896L216.095 309.336C216.095 309.005 216.169 308.664 216.319 308.312C216.479 307.949 216.703 307.592 216.991 307.24C217.289 306.888 217.641 306.563 218.047 306.264L220.207 304.664C220.463 304.483 220.692 304.275 220.895 304.04C221.108 303.795 221.273 303.544 221.391 303.288C221.519 303.021 221.583 302.76 221.583 302.504C221.583 302.163 221.497 301.853 221.327 301.576C221.156 301.288 220.916 301.064 220.607 300.904C220.297 300.733 219.929 300.648 219.503 300.648C219.097 300.648 218.74 300.728 218.431 300.888C218.132 301.037 217.881 301.24 217.679 301.496C217.476 301.752 217.332 302.024 217.247 302.312L215.631 302.008C215.748 301.517 215.977 301.059 216.319 300.632C216.66 300.205 217.097 299.864 217.631 299.608C218.164 299.341 218.767 299.208 219.439 299.208C220.207 299.208 220.868 299.352 221.423 299.64C221.988 299.917 222.425 300.307 222.735 300.808C223.044 301.299 223.199 301.864 223.199 302.504C223.199 303.123 223.028 303.693 222.687 304.216C222.356 304.739 221.876 305.245 221.247 305.736L219.247 307.24C218.937 307.464 218.66 307.709 218.415 307.976C218.169 308.243 217.977 308.536 217.839 308.856C217.711 309.165 217.647 309.512 217.647 309.896ZM216.095 310.6V309.336L217.279 309.192H223.343V310.6H216.095Z" fill="#D4D4D8"/>
<rect x="195.357" y="279.7" width="48.7143" height="49.8" stroke="#D4D4D8"/>
<path d="M268.406 310.792C267.83 310.792 267.307 310.707 266.838 310.536C266.368 310.365 265.974 310.131 265.654 309.832C265.334 309.533 265.088 309.208 264.918 308.856L266.278 308.232C266.384 308.381 266.518 308.552 266.678 308.744C266.838 308.925 267.051 309.08 267.318 309.208C267.584 309.336 267.915 309.4 268.31 309.4C268.982 309.4 269.515 309.208 269.91 308.824C270.315 308.44 270.518 307.955 270.518 307.368C270.518 306.931 270.4 306.563 270.166 306.264C269.931 305.955 269.584 305.72 269.126 305.56C268.678 305.4 268.128 305.32 267.478 305.32H267.078V304.136H267.446C268.107 304.136 268.715 304.211 269.27 304.36C269.835 304.509 270.331 304.733 270.758 305.032C271.184 305.32 271.515 305.672 271.75 306.088C271.984 306.504 272.102 306.979 272.102 307.512C272.102 308.173 271.931 308.755 271.59 309.256C271.259 309.747 270.811 310.125 270.246 310.392C269.691 310.659 269.078 310.792 268.406 310.792ZM267.078 305.128V303.992H267.478C268.352 303.992 269.035 303.843 269.526 303.544C270.016 303.245 270.262 302.824 270.262 302.28C270.262 301.971 270.176 301.693 270.006 301.448C269.846 301.192 269.616 300.989 269.318 300.84C269.03 300.68 268.683 300.6 268.278 300.6C268.022 300.6 267.771 300.643 267.526 300.728C267.291 300.803 267.072 300.92 266.87 301.08C266.667 301.229 266.491 301.427 266.342 301.672L265.03 301.08C265.211 300.685 265.467 300.349 265.798 300.072C266.128 299.795 266.512 299.581 266.95 299.432C267.387 299.283 267.851 299.208 268.342 299.208C269.014 299.208 269.611 299.336 270.134 299.592C270.656 299.848 271.067 300.2 271.366 300.648C271.675 301.096 271.83 301.603 271.83 302.168C271.83 302.648 271.712 303.075 271.478 303.448C271.254 303.811 270.939 304.12 270.534 304.376C270.128 304.621 269.659 304.808 269.126 304.936C268.603 305.064 268.038 305.128 267.43 305.128H267.078Z" fill="#D4D4D8"/>
<rect x="244.071" y="279.7" width="48.7143" height="49.8" stroke="#D4D4D8"/>
<path d="M313.927 307.48L312.775 306.792L317.831 299.4L318.823 300.296L313.927 307.48ZM312.775 308.024V306.792L313.735 306.632H321.655V308.024H312.775ZM317.943 310.6V300.36L317.831 299.4H319.463V310.6H317.943Z" fill="#D4D4D8"/>
<rect x="292.786" y="279.7" width="48.7143" height="49.8" stroke="#D4D4D8"/>
</g>
<rect x="0.5" y="80.5" width="341" height="249" rx="7.5" stroke="#D4D4D8"/>
<defs>
<clipPath id="clip0_1_77">
<rect x="269" width="73" height="36" rx="8" fill="white"/>
</clipPath>
<clipPath id="clip1_1_77">
<rect y="80" width="342" height="250" rx="8" fill="white"/>
</clipPath>
</defs>
</svg>
